<svg width="290" height="190" viewBox="0 0 290 190" fill="none" xmlns="http://www.w3.org/2000/svg">
<path d="M170.5 95.4C172.5 91.8 175.3 88.5 178.5 85.9C185.4 80.2 194.2 77.5 202.7 75C203.7 74.7 204.8 74.4 205.9 74.5C207.6 74.7 209.1 75.9 210.4 77C216.2 81.5 223.2 84.4 230.5 85.3C232.8 85.6 235 85.7 237.2 86.3C241.6 87.6 245.3 90.8 248.6 94L170.5 95.4Z" fill="#D3974E"/>
<path d="M9.09995 42.1C15.6 40.4 19.9 34.1 22.9 28.1C25.9 22.1 28.7 15.4 34.2 11.5C35.6 10.5 37.6 9.7 39 10.7C39.5 11.1 39.8999 11.7 40.2999 12.2C46.2999 22 54.3 30.4 62.2 38.7C63.1 39.7 64.2 40.7 65.5 40.9C66.7 41 67.8 40.4 68.9 39.8C73.3 37.2 78.1 34.4 83.2 35.3C88.2 36.2 91.8 40.5 94.8 44.6C97 47.5 99.3 50.5 101.5 53.4C104 56.7 106.7 60.2 110.4 62.1C112.4 63.2 114.5 63.8 116.7 64.4C121.1 65.6 125.5 66.8 130 68C131 68.3 132 68.6 132.9 69.1C134 69.8 134.7 70.9 135.4 71.9C140 79 143.4 87 144.6 95.4H6.69995C6.69995 94.5 6.69995 93.7 6.69995 92.8L9.09995 42.1Z" fill="#D3974E"/>
<path d="M4.7 96.3H265.9C247.9 97.9 229.7 101.6 212.3 106.4C233.1 117.6 260.8 105.9 281.4 117.4C276.4 121.1 270 122.5 263.9 123.8C254.9 125.7 245.9 127.7 236.9 129.6C230.7 130.9 224.2 132.4 219 136.1C215.5 138.6 212.8 142.1 209.1 144.2C206.5 145.7 203.6 146.4 200.7 147.1C187.1 150.3 173.3 152.8 159.5 154.4C156.6 154.8 152.8 156 153 158.9C153.1 160.7 154.7 162 156.3 162.9C160.5 165.4 165.2 167.3 170 168.3C173.9 169.1 179.1 170.7 179.1 174.7C179.1 177.2 176.8 179.1 174.4 179.8C172 180.5 169.5 180.4 167.1 180.8C162.1 181.6 157 184.6 154.6 189H0C0 187.3 0.1 185.5 0.1 183.8V97.4C1.1 97.4 2 97.4 3 97.2C2.8 96.5 4.4 97.1 4.7 96.3Z" fill="#EBC072"/>
<path d="M274.7 96.1C274.8 101.9 269.5 107.3 263.7 107.4C262.1 107.4 260.4 107.1 258.8 107.2C255.8 107.5 253.3 109.3 250.4 110.3C246.2 111.7 241.6 111.2 237.2 110.6C229.3 109.6 221.4 108.6 213.5 107.6C210.4 107.2 215 105.1 215.8 104.8C217.8 103.9 219.9 103.1 222 102.4C226 101 230.2 99.9 234.3 99.1C242.8 97.4 251.5 96.7 260.2 96.4C261.5 96.4 274.7 96 274.7 96.1Z" fill="#D3974E"/>
<path d="M269.3 122.9C255.7 126.2 241.9 128.7 228 130.5C226.5 130.7 225.1 130.9 223.7 131.4C217.4 133.7 215.2 141.8 209.3 145C207.1 146.2 204.6 146.5 202.1 146.9C189.1 148.8 176.1 150.7 163.2 152.6C160.8 152.9 158.4 153.3 156.3 154.4C154.2 155.5 152.5 157.6 152.4 160C154.5 162.4 158 163.2 161.2 163C164.4 162.8 167.5 161.7 170.7 161.1C177.3 159.8 184.1 160.2 190.8 159.7C197 159.2 203.1 157.9 208.9 155.8C211.3 154.9 213.8 153.8 215.5 151.9C216.4 150.8 217.1 149.5 217.9 148.4C220.3 145.2 224.1 143.2 228 142.1C231.9 141 235.9 140.8 239.9 140.2C251.9 138.6 263.5 134.7 275 130.9C276.3 130.5 277.6 130 278.6 129C279.4 128.2 279.8 127.2 280.1 126.2C280.9 124 283.2 117.4 279.2 118.8C276 120 273 122 269.3 122.9Z" fill="#D3974E"/>
<path d="M8.69991 95.9C43.3999 95.9 78.1999 95.9 112.9 95.9C147.5 95.9 182 95.9 216.6 95.9C226.3 95.9 236.1 95.9 245.8 95.9C255.5 95.9 265.3 96.2 275 95.8C275.8 95.8 275.8 94.6 275 94.6C266.3 94.2 257.6 94.5 248.9 94.5C240.2 94.5 231.5 94.5 222.8 94.5C205.4 94.5 188.1 94.5 170.7 94.5C136.1 94.5 101.6 94.5 66.9999 94.5C47.4999 94.5 27.9999 94.5 8.49991 94.5C7.79991 94.5 7.79991 95.9 8.69991 95.9Z" fill="#472A1A"/>
<path d="M271.7 94.9C267.7 95.4 263.7 95.6 259.8 96C255.9 96.4 252.1 96.8 248.2 97.4C240.2 98.5 232.3 100.1 224.5 102C220.1 103.1 215.6 104.2 211.4 105.8C210.8 106 211 106.9 211.7 106.8C216.7 105.7 221.6 104.2 226.5 103C231.5 101.8 236.5 100.8 241.5 99.9C246.6 99 251.8 98.3 256.9 97.7C261.9 97.2 266.9 96.9 271.9 96.2C272.6 96.1 272.4 94.8 271.7 94.9Z" fill="#472A1A"/>
<path d="M209.2 107.3C221.5 111 234.5 112.9 247.4 112.4C248.2 112.4 248.2 111.1 247.4 111.1C234.6 111.3 221.9 109.7 209.6 106C208.7 105.7 208.4 107 209.2 107.3Z" fill="#472A1A"/>
<path d="M250.7 112.5C251.5 112.6 252.3 112.7 253 112.9C253.4 113 253.8 113 254.2 113.1C254.4 113.1 254.6 113.2 254.8 113.2C255 113.2 255.2 113.2 255.4 113.2C255.7 113.2 255.9 113 256 112.8C256.1 112.6 256 112.2 255.7 112.1C255.5 112 255.3 111.9 255.1 111.8C254.9 111.8 254.7 111.7 254.6 111.7C254.2 111.6 253.8 111.6 253.4 111.5C252.6 111.4 251.8 111.3 251.1 111.1C250.7 111 250.3 111.2 250.2 111.6C250.1 112 250.3 112.5 250.7 112.5Z" fill="#472A1A"/>
<path d="M259.9 114.1C263.3 114.6 266.8 115.1 270.2 115.6C273.6 116.1 276.9 116.7 280.3 117C281.1 117.1 281.3 115.8 280.5 115.6C277.2 115 273.8 114.7 270.4 114.2C267 113.7 263.7 113.3 260.3 112.8C259.4 112.7 259.1 114 259.9 114.1Z" fill="#472A1A"/>
<path d="M280 116.8C279.9 117.2 279.7 117.5 279.4 118C279.4 118.1 279.3 118.1 279.3 118.1C279.2 118.3 279.4 118 279.3 118.2C279.2 118.3 279.1 118.4 279.1 118.5C278.9 118.7 278.8 118.8 278.6 119L278.5 119.1C278.6 119 278.5 119.1 278.4 119.1C278.3 119.2 278.2 119.2 278.1 119.3C277.9 119.4 277.7 119.5 277.5 119.6C277.4 119.6 277.4 119.6 277.3 119.7C277.2 119.8 277 119.8 276.9 119.9C276.7 120 276.5 120.1 276.3 120.2C276 120.4 276 121 276.4 121C276.7 121 277 121.1 277.2 121C277.5 121 277.8 120.8 278.1 120.7C278.6 120.5 279.1 120.2 279.5 119.8C280.4 119.1 281 118.1 281.3 117.1C281.4 116.8 281.2 116.4 280.8 116.3C280.5 116.2 280.1 116.4 280 116.8Z" fill="#472A1A"/>
<path d="M275 121.1C271.4 121.6 267.9 122.5 264.5 123.7C262.9 124.3 261.3 124.9 259.7 125.4C257.8 125.9 255.9 125.9 254 126C246.8 126.2 239.2 127 232.5 129.6C231.8 129.9 232.1 130.9 232.8 130.7C236.4 129.8 239.9 128.9 243.6 128.3C247.3 127.7 251.1 127.5 254.9 127.3C256.6 127.2 258.2 127.1 259.8 126.7C261.5 126.3 263 125.6 264.6 125C268.1 123.7 271.6 122.8 275.3 122.3C276.1 122.2 275.8 121 275 121.1Z" fill="#472A1A"/>
<path d="M229.5 130.6C226.7 131.1 223.8 131.7 221 132.3C219.4 132.6 216.8 133.7 217.7 135.8C217.9 136.3 218.6 136 218.6 135.6C218.7 134 221.5 133.7 222.7 133.5C225.1 133 227.5 132.5 229.8 132C230.7 131.7 230.3 130.5 229.5 130.6Z" fill="#472A1A"/>
<path d="M215.2 138.2C214.7 139.3 214.1 140.5 213.4 141.4C213 141.9 212.6 142.3 212.1 142.8C211.9 143 211.6 143.2 211.4 143.4C211.1 143.6 210.8 143.8 210.7 144.2C210.6 144.5 210.8 144.8 211.1 144.9C211.8 145 212.5 144.3 213 143.9C213.5 143.5 214 143 214.4 142.4C215.3 141.3 216 140.1 216.4 138.7C216.5 138.4 216.3 138.1 216 138C215.8 137.9 215.4 137.9 215.2 138.2Z" fill="#472A1A"/>
<path d="M208.4 145.2C200.3 146.5 192.3 147.7 184.2 149C180.3 149.6 176.3 150.2 172.4 150.9C170.5 151.2 168.5 151.5 166.6 151.8C165.6 152 164.7 152.1 163.7 152.3C162.6 152.5 161.4 152.5 160.3 153C159.7 153.3 159.8 154.1 160.5 154.2C162.4 154.3 164.6 153.7 166.5 153.4C168.4 153.1 170.4 152.8 172.3 152.5C176.3 151.9 180.3 151.2 184.4 150.6C192.5 149.3 200.7 148 208.8 146.7C209.6 146.4 209.3 145.1 208.4 145.2Z" fill="#472A1A"/>
<path d="M154.6 154C153.9 154.4 153.4 154.9 152.9 155.6C152.7 155.9 152.5 156.2 152.4 156.6C152.3 156.8 152.3 156.9 152.3 157.1C152.3 157.2 152.2 157.4 152.2 157.5C152.2 157.7 152.3 157.8 152.3 157.9C152.4 158.1 152.8 158.3 153 158.1C153.1 158 153.2 157.9 153.3 157.8C153.4 157.7 153.4 157.6 153.4 157.5V157.4C153.4 157.3 153.3 157.5 153.4 157.4C153.4 157.3 153.5 157.3 153.5 157.2C153.6 156.9 153.8 156.7 154 156.4C154 156.4 154 156.3 154.1 156.3C154.2 156.2 154.2 156.2 154.2 156.1C154.3 156 154.4 155.9 154.5 155.8C154.6 155.7 154.6 155.7 154.7 155.6C154.8 155.5 155 155.4 155.1 155.3C155.4 155.1 155.6 154.6 155.4 154.3C155.3 153.9 154.9 153.8 154.6 154Z" fill="#472A1A"/>
<path d="M153.1 155.8C152.8 156.2 152.4 156.5 152.1 156.9C151.9 157.1 151.8 157.2 151.6 157.4C151.4 157.6 151.3 157.8 151.1 157.9C150.7 158.1 150.6 158.7 151 159C151.7 159.7 152.4 160.3 153.3 160.8C153.7 161 154.1 161.3 154.5 161.4C155 161.6 155.6 162 156.1 161.8C156.4 161.7 156.6 161.3 156.4 161C156.2 160.6 155.6 160.4 155.2 160.2C154.8 160 154.4 159.8 154.1 159.6C153.4 159.1 152.7 158.6 152.1 158C152.1 158.3 152.2 158.6 152.2 158.8C152.3 158.6 152.5 158.4 152.7 158.3C152.9 158.1 153 158 153.2 157.8C153.5 157.4 153.9 157.1 154.2 156.7C154.6 156.1 153.7 155.2 153.1 155.8Z" fill="#472A1A"/>
<path d="M156.8 164.2C164.3 166.5 171.5 169.5 178.5 173.1C179.3 173.5 180.1 172.3 179.2 171.8C172.1 168.1 164.8 165.1 157.2 162.7C156.3 162.5 155.9 163.9 156.8 164.2Z" fill="#472A1A"/>
<path d="M274.5 96C274.1 97.1 273.8 98.3 273.5 99.4C273.2 100.5 272.8 101.7 272.6 102.9C272.4 103.8 273.7 104.2 274 103.3C274.3 102.2 274.6 101 274.9 99.8C275.2 98.7 275.5 97.5 275.8 96.4C276 95.6 274.8 95.2 274.5 96Z" fill="#472A1A"/>
<path d="M272.7 104C272.6 104 272.6 104 272.5 104C272.4 104 272.3 104 272.2 104C272.2 104 272.1 104 272.1 104.1C272 104.1 272 104.2 271.9 104.3L271.8 104.4C271.8 104.5 271.7 104.5 271.7 104.6C271.7 104.7 271.7 104.7 271.7 104.8C271.7 104.8 271.7 104.9 271.8 104.9C271.8 105 271.9 105 272 105.1C272.1 105.2 272.1 105.2 272.2 105.2H272.3H272.4H272.5C272.6 105.2 272.6 105.2 272.7 105.2C272.8 105.2 272.9 105.2 272.9 105.1C273 105.1 273 105 273.1 105C273.2 104.9 273.2 104.9 273.2 104.8C273.2 104.7 273.3 104.6 273.3 104.6C273.3 104.5 273.3 104.5 273.3 104.4C273.3 104.3 273.2 104.2 273.1 104.1L273 104C272.9 104 272.8 104 272.7 104Z" fill="#472A1A"/>
<path d="M271.5 104.3C269.6 104.9 267.6 105.4 265.7 106.1C265.4 106.2 265.2 106.4 265.2 106.7C265.2 106.9 265.3 107 265.4 107.2C265.5 107.4 265.8 107.4 266 107.4C267.9 106.9 269.8 106.2 271.8 105.6C272.6 105.3 272.3 104.1 271.5 104.3Z" fill="#472A1A"/>
<path d="M264.3 106.8C260.5 106.6 256.8 107.7 253 107.7C251.3 107.7 250.2 108 248.8 109C247.1 110.2 245 109.3 243.1 109.9C242.6 110.1 242.5 110.8 243.1 111C244.1 111.2 245.1 111.1 246.1 111C246.9 111 247.7 111 248.5 110.7C249.2 110.4 249.6 110 250.2 109.6C251 109.1 252 109.1 252.9 109.1C256.7 109.1 260.4 107.9 264.2 108C265 107.9 265 106.8 264.3 106.8Z" fill="#472A1A"/>
<path d="M281.5 117C280.5 117.5 280.5 118.6 280.5 119.6C280.4 120.9 280 122.2 279.6 123.4C279.2 124.6 278.8 125.8 278.5 127C278.4 127.6 278.2 128.2 278.2 128.8C278.1 129.4 278 130.2 278.3 130.7C278.6 131.1 279.1 131.1 279.3 130.7C279.6 130.2 279.5 129.7 279.6 129.1C279.7 128.5 279.8 128 279.9 127.4C280.2 126.3 280.5 125.3 280.9 124.2C281.2 123.1 281.6 122.1 281.8 121C281.9 120.4 282 119.9 282 119.3C282 118.9 282 118.4 282.3 118.2C282.8 117.7 282.2 116.6 281.5 117Z" fill="#472A1A"/>
<path d="M276.4 120.9C276.2 122.3 276 123.7 275.7 125.1C275.6 125.8 275.4 126.5 275.2 127.2C275.1 127.5 275 127.9 274.9 128.2C274.8 128.6 274.7 128.9 274.9 129.3C275.1 129.6 275.4 129.7 275.7 129.5C276.1 129.3 276.1 129 276.2 128.6C276.3 128.3 276.4 127.9 276.5 127.6C276.7 126.9 276.8 126.2 277 125.5C277.3 124.1 277.5 122.7 277.7 121.2C277.8 120.3 276.5 120.1 276.4 120.9Z" fill="#472A1A"/>
<path d="M276.9 129.7C275.7 130.1 274.4 130.4 273.2 130.7C272.9 130.8 272.7 131.2 272.8 131.5C272.9 131.8 273.2 132 273.6 131.9C274.9 131.7 276.1 131.3 277.4 130.9C277.7 130.8 278 130.4 277.9 130.1C277.6 129.8 277.3 129.6 276.9 129.7Z" fill="#472A1A"/>
<path d="M267.5 132.4C262.4 133.9 257.2 135.3 252.1 136.8C249.6 137.5 247 138.3 244.5 139C242.1 139.7 239.4 140.3 237.1 141.4C236.7 141.6 236.9 142.3 237.3 142.3C239.7 142.1 242.2 141.1 244.6 140.4C247.2 139.6 249.8 138.9 252.4 138.1C257.5 136.6 262.7 135 267.8 133.5C268.6 133.3 268.3 132.2 267.5 132.4Z" fill="#472A1A"/>
<path d="M230.1 141.9C228.5 141.7 226.8 141.9 225.2 142.3C224.4 142.5 223.7 142.8 222.9 143.2C222.6 143.4 222.2 143.5 221.9 143.6C221.5 143.7 221.1 143.6 220.7 143.9C220.4 144.1 220.3 144.6 220.6 144.8C221.2 145.4 222.2 145 222.9 144.8C223.7 144.5 224.4 144.1 225.2 143.8C226.8 143.3 228.4 143.1 230.1 143.3C230.5 143.3 230.8 143 230.8 142.6C230.8 142.2 230.5 141.9 230.1 141.9Z" fill="#472A1A"/>
<path d="M219.3 146.3C218 147.6 217.8 149.6 216.5 150.8C215.7 151.5 214.9 152.2 213.9 152.7C213.4 153 212.8 153.3 212.3 153.7C211.8 154 211.2 154.3 210.9 154.8C210.6 155.3 211.1 155.7 211.5 155.6C212.1 155.5 212.6 155.1 213.1 154.7C213.6 154.4 214.1 154 214.6 153.6C215.1 153.3 215.5 152.9 216 152.6C216.5 152.3 216.9 152.1 217.3 151.7C218 151.1 218.4 150.2 218.8 149.4C219.2 148.6 219.5 147.7 220.1 147.1C220.8 146.7 219.9 145.7 219.3 146.3Z" fill="#472A1A"/>
<path d="M209.2 156.4C202.9 156.9 196.6 157.9 190.3 158.5C187.2 158.8 184.1 159.1 180.9 159.5C179.3 159.7 177.8 159.8 176.2 160C174.7 160.2 173 160.1 171.6 160.5C171 160.7 171.2 161.5 171.7 161.6C173.2 161.8 174.9 161.4 176.4 161.3C178 161.2 179.5 161 181.1 160.9C184.3 160.6 187.5 160.3 190.7 159.9C196.9 159.2 203.2 158.7 209.3 157.6C210.1 157.6 209.9 156.4 209.2 156.4Z" fill="#472A1A"/>
<path d="M169.4 161.5C169.3 161.5 169.1 161.6 169 161.6C169 161.6 168.9 161.6 168.9 161.7C168.8 161.7 168.8 161.8 168.8 161.8L168.7 161.9C168.7 162 168.7 162 168.7 162.1V162.2C168.7 162.2 168.7 162.3 168.8 162.3C168.8 162.4 168.9 162.4 168.9 162.4C168.9 162.4 169 162.5 169.1 162.5C169.2 162.5 169.4 162.6 169.5 162.6C169.6 162.6 169.7 162.6 169.8 162.6C169.9 162.6 170 162.5 170.1 162.4L170.2 162.3C170.3 162.2 170.3 162.1 170.3 162C170.3 161.9 170.3 161.8 170.2 161.8C170.2 161.7 170.1 161.7 170.1 161.6C169.9 161.5 169.6 161.5 169.4 161.5Z" fill="#472A1A"/>
<path d="M164.8 161.9C164.1 162.1 163.4 162.3 162.7 162.5C162.3 162.6 162 162.6 161.6 162.7C161.4 162.7 161.4 162.7 161.2 162.8C160.9 162.8 160.7 162.9 160.5 163.1C160.2 163.4 160.3 163.8 160.6 164C161 164.3 161.5 164.1 161.9 164.1C162.3 164 162.6 164 163 163.9C163.7 163.7 164.4 163.5 165.1 163.3C165.4 163.2 165.7 162.8 165.6 162.4C165.6 162 165.2 161.7 164.8 161.9Z" fill="#472A1A"/>
<path d="M231.8 131.4C232.1 132.8 231.9 134.3 231.9 135.7C231.9 136.4 231.9 137.2 231.9 137.9C231.9 138.6 231.8 139.4 232.2 140C232.4 140.3 232.8 140.3 233 140C233.4 139.4 233.3 138.5 233.3 137.7C233.3 137 233.3 136.2 233.3 135.5C233.3 134 233.4 132.5 233.1 131C233 130.1 231.6 130.5 231.8 131.4Z" fill="#472A1A"/>
<path d="M218.9 136.4C218.7 138.3 218.5 140.2 218.3 142.1C218.2 143.1 218.2 144 218.1 145C218 145.9 217.9 146.9 218.2 147.8C218.3 148.1 218.9 148.3 219.1 147.9C219.5 147.1 219.4 146.1 219.5 145.2C219.5 144.2 219.6 143.2 219.7 142.2C219.8 140.3 220 138.3 220.2 136.4C220.2 135.6 219 135.6 218.9 136.4Z" fill="#472A1A"/>
<path d="M211.6 147.2C211.8 147.9 211.9 148.6 211.8 149.4C211.8 149.5 211.8 149.7 211.7 149.9C211.7 150.1 211.6 150.3 211.6 150.4C211.5 150.6 211.5 150.7 211.4 150.9C211.4 151 211.3 151 211.3 151.2C211.3 151.3 211.3 151.5 211.3 151.6C211.3 152 211.8 152.4 212.2 152.1C212.3 152 212.4 152 212.5 151.9C212.6 151.8 212.7 151.6 212.7 151.5C212.8 151.3 212.8 151.1 212.9 150.9C213 150.5 213.1 150 213.2 149.5C213.3 148.6 213.2 147.7 213 146.9C212.6 146 211.3 146.4 211.6 147.2Z" fill="#472A1A"/>
<path d="M221.9 106.6C221.9 107 221.9 107.5 221.9 107.9C221.9 108.1 221.9 108.3 221.9 108.5C221.9 108.6 221.9 108.8 222 108.9C222 109 222.1 109.1 222.1 109.2C222.2 109.6 222.9 109.6 223 109.2C223 109.1 223.1 109 223.1 108.9V108.8C223.2 108.7 223.2 108.6 223.2 108.4C223.2 108.2 223.2 108 223.2 107.8C223.2 107.4 223.2 106.9 223.2 106.5C223.2 106.2 222.9 105.8 222.5 105.8C222.2 105.9 221.9 106.2 221.9 106.6Z" fill="#472A1A"/>
<path d="M265.3 110.9C266.4 110.9 267.5 110.9 268.5 110.9C269 110.9 269.6 110.9 270.1 110.9C270.6 110.9 271.2 110.8 271.7 110.7C272.2 110.6 272.2 109.8 271.7 109.8C271.2 109.7 270.6 109.6 270.1 109.6C269.6 109.6 269 109.6 268.5 109.6C267.4 109.6 266.3 109.6 265.3 109.6C264.4 109.5 264.4 110.9 265.3 110.9Z" fill="#472A1A"/>
<path d="M265.9 107.5C268 107.5 270.1 107.5 272.2 107.5C273.1 107.5 273.1 106.1 272.2 106.1C270.1 106.1 268 106.1 265.9 106.1C264.9 106 264.9 107.5 265.9 107.5Z" fill="#472A1A"/>
<path d="M220.6 152.7C221.5 152.7 222.4 152.7 223.2 152.7C223.6 152.7 224.1 152.7 224.5 152.7C225 152.7 225.4 152.6 225.9 152.6C226.4 152.5 226.4 151.6 225.9 151.5C225.4 151.4 225 151.4 224.5 151.4C224.1 151.4 223.6 151.4 223.2 151.4C222.3 151.4 221.4 151.4 220.6 151.4C220.2 151.4 219.9 151.7 219.9 152.1C219.9 152.4 220.2 152.7 220.6 152.7Z" fill="#472A1A"/>
<path d="M212.8 170C213.1 170 213.4 170 213.7 170C213.8 170 214 170 214.1 170C214.2 170 214.3 170 214.4 169.9C214.5 169.9 214.5 169.8 214.6 169.8C214.7 169.8 214.8 169.7 214.9 169.6C215 169.5 215 169.4 215 169.3C215 169.2 215 169.1 214.9 169C214.8 168.9 214.7 168.8 214.6 168.7C214.5 168.7 214.5 168.6 214.4 168.6C214.3 168.6 214.2 168.6 214.1 168.5C214 168.5 213.8 168.5 213.7 168.5C213.4 168.5 213.1 168.5 212.8 168.5C212.4 168.5 212.1 168.8 212.1 169.2C212.1 169.7 212.4 170 212.8 170Z" fill="#472A1A"/>
<path d="M249.1 151.8C249.7 151.8 250.3 151.7 250.8 151.7C251 151.7 251.1 151.6 251.2 151.5C251.3 151.4 251.4 151.2 251.4 151.1C251.4 150.8 251.1 150.5 250.8 150.5C250.2 150.5 249.6 150.4 249.1 150.4C248.9 150.4 248.7 150.5 248.6 150.6C248.5 150.7 248.4 150.9 248.4 151.1C248.4 151.3 248.5 151.5 248.6 151.6C248.8 151.8 249 151.9 249.1 151.8Z" fill="#472A1A"/>
<path d="M145.8 93.4C142.7 86.9 139.8 80.3 136.6 74C136.2 73.2 135.1 73.9 135.4 74.7C138.3 81.3 141.5 87.7 144.6 94.1C145 94.9 146.2 94.2 145.8 93.4Z" fill="#472A1A"/>
<path d="M134.8 71C134.6 70.8 134.5 70.5 134.3 70.3C134.2 70.2 134.1 70.1 134 69.9C133.9 69.7 133.8 69.6 133.6 69.4C133.5 69.3 133.3 69.2 133.1 69.2C133 69.2 132.8 69.3 132.7 69.3C132.4 69.5 132.4 69.9 132.5 70.2C132.8 70.7 133.2 71.2 133.5 71.7C133.6 71.8 133.7 72 133.9 72C134.1 72 134.3 72 134.4 71.9C134.5 71.8 134.7 71.7 134.7 71.5C134.9 71.4 134.9 71.2 134.8 71Z" fill="#472A1A"/>
<path d="M133.1 69.2C128.6 67.5 124 65.8 119.4 64.1C117.2 63.3 114.9 62.4 112.7 61.6C111.6 61.2 110.5 60.8 109.5 60.4C108.4 60 107.3 59.4 106.1 59.3C105.5 59.2 105.4 60.1 105.8 60.4C106.8 61.1 108 61.4 109.2 61.8C110.3 62.2 111.4 62.6 112.4 63C114.6 63.8 116.9 64.7 119.1 65.5C123.7 67.2 128.2 68.9 132.8 70.6C133.6 70.8 133.9 69.5 133.1 69.2Z" fill="#472A1A"/>
<path d="M101.4 55.5C98 47.9 93 41 86.7 35.5C86.2 35 85.4 35.8 85.9 36.3C91.9 41.9 96.8 48.7 100.2 56.2C100.5 57 101.7 56.3 101.4 55.5Z" fill="#472A1A"/>
<path d="M102.1 59C102.2 59.1 102.3 59.2 102.4 59.3L102.5 59.4H102.6C102.7 59.4 102.7 59.4 102.8 59.5C102.9 59.5 102.9 59.5 103 59.6C103.1 59.6 103.2 59.6 103.3 59.6C103.4 59.6 103.5 59.5 103.6 59.5C103.7 59.4 103.7 59.3 103.7 59.2C103.7 59.1 103.7 59 103.7 58.9C103.7 58.9 103.7 58.8 103.6 58.8C103.6 58.8 103.6 58.8 103.6 58.7C103.5 58.5 103.6 58.6 103.5 58.5C103.5 58.5 103.5 58.4 103.4 58.4C103.3 58.3 103.2 58.2 103.1 58.1C103 58 103 58 102.9 58C102.8 58 102.7 57.9 102.6 57.9C102.5 57.9 102.4 57.9 102.3 58C102.2 58 102.1 58.1 102.1 58.1L102 58.2C101.9 58.3 101.9 58.4 101.9 58.6C101.9 58.7 101.9 58.7 101.9 58.8C101.9 58.8 102 58.9 102.1 59Z" fill="#472A1A"/>
<path d="M84.2001 35.3C82.8001 35.1 81.4001 34.9 79.9001 34.8C79.2001 34.7 78.5001 34.6 77.8001 34.5C77.5001 34.5 77.1001 34.4 76.8001 34.4C76.4001 34.4 76.1001 34.3 75.7001 34.5C75.4001 34.7 75.3001 35.1 75.6001 35.4C75.9001 35.7 76.2001 35.7 76.6001 35.8C77.0001 35.9 77.4001 35.9 77.7001 35.9C78.4001 36 79.1001 36.1 79.8001 36.1C81.2001 36.3 82.7001 36.4 84.1001 36.6C84.4001 36.6 84.7001 36.3 84.7001 36C84.8001 35.6 84.5001 35.4 84.2001 35.3Z" fill="#472A1A"/>
<path d="M73.3 36.6C72.2 37 71.0999 37.4 69.9999 37.9C69.4999 38.1 68.9 38.3 68.4 38.5C67.9 38.7 67 38.9 66.8 39.5C66.7 39.7 66.7999 40 67.0999 40.1C67.5999 40.4 68.3 40 68.8 39.8C69.4 39.6 69.8999 39.4 70.4999 39.2C71.5999 38.8 72.7 38.4 73.8 38C74.1 37.9 74.4 37.5 74.3 37.2C74 36.7 73.6 36.5 73.3 36.6Z" fill="#472A1A"/>
<path d="M64.2999 39.7C62.9999 38 61.4999 36.3 59.9999 34.7C59.2999 33.9 58.4999 33.2 57.6999 32.5C57.2999 32.1 56.7999 31.8 56.3999 31.4C55.8999 31 55.5999 30.7 54.9999 30.7C54.7999 30.7 54.4999 30.9 54.5999 31.1C54.9999 32.1 55.8999 32.7 56.6999 33.4C57.4999 34.1 58.2999 34.9 58.9999 35.6C60.4999 37.1 61.8999 38.7 63.1999 40.4C63.3999 40.7 63.7999 40.9 64.0999 40.6C64.3999 40.5 64.5999 40 64.2999 39.7Z" fill="#472A1A"/>
<path d="M51.9999 26.2C47.9999 21.3 43.9999 16.4 39.8999 11.6C39.3999 11 38.5999 11.9 38.9999 12.5C42.8999 17.5 46.8999 22.3 50.8999 27.2C51.5999 27.9 52.5999 26.9 51.9999 26.2Z" fill="#472A1A"/>
<path d="M37.0999 9.80001C33.6999 10 30.5999 12.2 29.5999 15.5C29.4999 15.8 29.6999 16.2 30.0999 16.3C30.4999 16.4 30.7999 16.2 30.8999 15.8C31.8999 13.2 34.3999 11.3 37.0999 11.1C37.8999 11 37.8999 9.70001 37.0999 9.80001Z" fill="#472A1A"/>
<path d="M27.7999 17.7C25.4999 22.4 22.8999 27 20.0999 31.5C17.7999 35.1 15.2999 39.3 10.6999 40.2C9.79994 40.4 10.1999 41.7 11.0999 41.5C15.4999 40.9 18.3999 36.8 20.5999 33.3C23.6999 28.5 26.3999 23.5 28.8999 18.4C29.2999 17.6 28.1999 17 27.7999 17.7Z" fill="#472A1A"/>
<path d="M29.4001 20.6C30.5001 21.7 31.4001 23 32.2001 24.4C32.6001 25.1 32.9001 25.8 33.1001 26.5C33.3001 26.9 33.4001 27.3 33.5001 27.6C33.6001 28 33.7001 28.4 34.0001 28.7C34.3001 29 34.7001 28.8 34.9001 28.5C35.0001 28.1 34.9001 27.7 34.8001 27.3C34.7001 26.9 34.6001 26.5 34.4001 26.1C34.1001 25.3 33.8001 24.5 33.4001 23.8C32.6001 22.3 31.6001 21 30.4001 19.8C29.8001 19.1 28.8001 20 29.4001 20.6Z" fill="#472A1A"/>
<path d="M35.4999 31.6C35.7999 32.5 36.0999 33.4 36.5999 34.3C36.7999 34.7 37.0999 35.1 37.2999 35.5C37.5999 35.9 37.8999 36.5 38.4999 36.6C38.7999 36.7 39.1999 36.5 39.0999 36.1C39.0999 36 39.0999 35.9 39.0999 35.7C38.9999 35.5 38.8999 35.4 38.7999 35.3C38.6999 35.2 38.4999 35 38.3999 34.8C38.0999 34.4 37.8999 34.1 37.6999 33.7C37.2999 32.9 36.9999 32.1 36.6999 31.3C36.5999 31 36.2999 30.8 35.8999 30.9C35.5999 30.9 35.3999 31.2 35.4999 31.6Z" fill="#472A1A"/>
<path d="M37.2999 30.2C39.7999 23.9 34.1999 17.4 36.5999 11.1C36.8999 10.4 35.6999 9.89999 35.2999 10.6C32.3999 16.9 38.3999 23.5 35.8999 29.9C35.6999 30.6 36.9999 31 37.2999 30.2Z" fill="#472A1A"/>
<path d="M39.5999 40C42.5999 44.6 45.6999 49.4 47.4999 54.6C48.3999 57.1 48.9999 59.8 49.1999 62.5C49.2999 64.8 48.7999 68.2 50.1999 70.2C50.4999 70.6 51.1999 70.5 51.1999 69.9C50.9999 68.5 50.5999 67.2 50.5999 65.7C50.5999 64.3 50.5999 63 50.4999 61.6C50.2999 58.9 49.5999 56.3 48.6999 53.8C46.7999 48.6 43.7999 43.9 40.7999 39.2C40.3999 38.5 39.0999 39.2 39.5999 40Z" fill="#472A1A"/>
<path d="M54.1999 65.9C54.3999 65.3 54.4999 64.7 54.6999 64.1C54.7999 63.8 54.8999 63.5 54.8999 63.2C54.9999 62.8 54.9999 62.5 55.0999 62.1C55.0999 61.5 54.1999 61.3 53.9999 61.8C53.7999 62.1 53.6999 62.4 53.5999 62.8C53.4999 63.1 53.3999 63.4 53.2999 63.7C53.0999 64.3 52.8999 64.9 52.7999 65.5C52.6999 65.9 52.8999 66.3 53.2999 66.4C53.5999 66.5 53.9999 66.3 54.1999 65.9Z" fill="#472A1A"/>
<path d="M63.1 41.3C62.6 42 62.1 42.7 61.5 43.4C61.2 43.7 61 44.1 60.7 44.4C60.6 44.6 60.4 44.7 60.3 44.9C60.2 45.1 60.1 45.3 60.1 45.6C60 46 60.4 46.3 60.8 46.1C61 46 61.2 45.9 61.4 45.7C61.6 45.5 61.7 45.3 61.8 45.1C62.1 44.7 62.3 44.4 62.6 44C63.1 43.3 63.7 42.6 64.2 41.9C64.4 41.6 64.3 41.1 64 41C63.7 40.9 63.4 41 63.1 41.3Z" fill="#472A1A"/>
<path d="M74.6999 40.7C69.7999 43.6 64.6999 46.9 60.6999 51C58.8999 52.9 57.3999 55.2 56.0999 57.5C54.5999 60.2 53.0999 63 51.6999 65.7C51.2999 66.4 52.3999 67 52.7999 66.3C55.4999 61.5 57.5999 55.8 61.4999 51.8C65.3999 47.8 70.3999 44.5 75.1999 41.7C75.9999 41.4 75.3999 40.3 74.6999 40.7Z" fill="#472A1A"/>
<path d="M50.7999 68.1C50.6999 68.3 50.6999 68.5 50.5999 68.6C50.4999 68.8 50.4999 69 50.3999 69.1C50.2999 69.3 50.4999 69.5 50.6999 69.6C50.7999 69.6 50.8999 69.7 50.9999 69.6H51.0999C51.1999 69.6 51.1999 69.5 51.2999 69.4C51.3999 69.2 51.4999 69.1 51.5999 68.9C51.6999 68.7 51.7999 68.6 51.8999 68.4C51.9999 68.3 51.9999 68.1 51.9999 67.9C51.9999 67.8 51.8999 67.7 51.7999 67.6C51.6999 67.5 51.6999 67.5 51.5999 67.5C51.3999 67.4 51.2999 67.4 51.0999 67.5C50.8999 67.7 50.7999 67.9 50.7999 68.1Z" fill="#472A1A"/>
<path d="M49 73.9C49.1 76.3 49.5 78.6 50.3 80.9C50.7 82 51.1 83.1 51.7 84.1C52.2 85.2 52.8 86.2 53.6 87.1C54.1 87.6 54.8 87 54.5 86.4C54 85.4 53.4 84.5 52.9 83.5C52.4 82.5 51.9 81.5 51.6 80.4C50.9 78.3 50.5 76.1 50.3 73.9C50.3 73 49 73 49 73.9Z" fill="#472A1A"/>
<path d="M58.4 92.4C59 92.6 59.6 92.9 60.2 93.1C60.5 93.2 60.8 93.3 61.1 93.5C61.3 93.6 61.5 93.6 61.7 93.7C61.9 93.7 62 93.7 62.2 93.7C62.6 93.7 62.8 93.2 62.5 92.9C62.4 92.8 62.3 92.7 62.2 92.6C62 92.5 61.9 92.4 61.7 92.3C61.4 92.2 61.1 92 60.8 91.9C60.1 91.6 59.5 91.3 58.8 91.1C58.5 91 58 91.3 57.9 91.6C57.8 92 58 92.3 58.4 92.4Z" fill="#472A1A"/>
<path d="M97.4 61.8C96.7 62.7 96.2 63.8 95.9 64.9C95.8 65.3 95.7 65.8 96 66.1C96.2 66.3 96.4 66.3 96.6 66.3C96.9 66.2 97 65.9 97.1 65.7C97.2 65.4 97.3 65.2 97.4 64.9C97.4 64.8 97.5 64.6 97.5 64.5C97.5 64.5 97.6 64.3 97.5 64.4C97.5 64.3 97.6 64.2 97.6 64.2C97.9 63.6 98.2 63.1 98.6 62.6C98.8 62.3 98.7001 61.8 98.3001 61.6C98.0001 61.3 97.6 61.4 97.4 61.8Z" fill="#472A1A"/>
<path d="M14.6001 41C15.7001 42 16.7001 42.9 17.8001 43.9C18.3001 44.4 18.8001 44.8 19.3001 45.3C19.6001 45.5 19.8001 45.8 20.1001 46C20.4001 46.3 20.7001 46.4 21.1001 46.6C21.5001 46.8 21.8001 46.2 21.6001 45.9C21.4001 45.6 21.3001 45.3 21.0001 45C20.7001 44.8 20.5001 44.5 20.2001 44.3C19.7001 43.8 19.2001 43.3 18.6001 42.8C17.6001 41.8 16.5001 40.9 15.5001 39.9C15.0001 39.4 14.0001 40.4 14.6001 41Z" fill="#472A1A"/>
<path d="M27.5 54.5C28.3 54.9 29.2 55.4 29.9 55.9C30.7 56.4 31.3 57.1 31.9 57.8C32.5 58.5 33.1 59.2 33.6 60C33.9 60.4 34.1 60.7 34.3 61.1C34.6 61.5 34.8 62 35.1 62.3C35.5 62.7 36.1 62.3 36 61.8C35.9 61.3 35.6 60.9 35.4 60.4C35.1 60 34.9 59.6 34.6 59.2C34 58.4 33.4 57.6 32.6 57C31.9 56.3 31.1 55.8 30.3 55.1C29.6 54.5 28.8 53.9 27.9 53.4C27.4 53 26.8 54.2 27.5 54.5Z" fill="#472A1A"/>
<path d="M35.5001 61.4C33.3001 59.7 30.9001 58.2 28.3001 57C27.1001 56.4 25.8001 55.9 24.6001 55.5C23.9001 55.3 23.3001 55 22.6001 54.9C21.9001 54.7 21.3001 54.5 20.6001 54.7C20.3001 54.8 20.1001 55.3 20.4001 55.5C20.9001 55.9 21.4001 56 22.0001 56.2C22.7001 56.4 23.3001 56.6 24.0001 56.8C25.3001 57.3 26.6001 57.8 27.9001 58.4C30.4001 59.6 32.7001 61 34.9001 62.7C35.5001 63.1 36.2001 61.9 35.5001 61.4Z" fill="#472A1A"/>
<path d="M172.2 94.7C172.7 93.2 173.4 91.7 174.2 90.2C174.6 89.5 175 88.8 175.5 88.1C175.7 87.8 175.9 87.5 176.2 87.1C176.5 86.7 176.8 86.4 176.6 85.9C176.5 85.7 176.3 85.5 176.1 85.5C175.6 85.5 175.4 85.8 175.1 86.2C174.8 86.6 174.6 86.9 174.3 87.3C173.8 88 173.4 88.7 172.9 89.5C172.1 91 171.3 92.6 170.8 94.3C170.5 95.2 171.9 95.6 172.2 94.7Z" fill="#472A1A"/>
<path d="M178 86.6C181.9 83.9 186.4 82.6 190.9 81.2C193.2 80.5 195.4 79.7 197.7 78.8C198.8 78.3 200 77.8 201.1 77.3C202.2 76.8 203.4 76.4 204.4 75.7C204.9 75.3 204.3 74.6 203.8 74.7C202.7 74.9 201.6 75.5 200.6 76C199.3 76.6 198 77.1 196.7 77.7C194.4 78.6 192.1 79.4 189.8 80.1C185.5 81.4 181.1 82.8 177.4 85.5C176.6 85.9 177.3 87.1 178 86.6Z" fill="#472A1A"/>
<path d="M206.6 75.4C209.2 77.4 211.9 79.2 214.8 80.7C216.3 81.5 217.8 82.2 219.3 82.8C220.1 83.1 220.8 83.5 221.6 83.8C222.3 84.1 223 84.5 223.8 84.6C224.3 84.6 224.6 83.9 224.2 83.6C223.7 83.1 222.8 82.9 222.1 82.6C221.3 82.3 220.6 81.9 219.8 81.6C218.4 81 217 80.3 215.6 79.6C212.7 78.1 210 76.5 207.5 74.5C206.8 74 205.9 74.9 206.6 75.4Z" fill="#472A1A"/>
<path d="M227.1 86.2C228.8 86.2 230.5 86.3 232.2 86.5C233 86.6 233.9 86.7 234.7 86.8C235.5 86.9 236.4 87.2 237.2 87.1C237.7 87 237.7 86.3 237.3 86C236.6 85.5 235.5 85.5 234.7 85.4C233.9 85.3 233 85.2 232.2 85.1C230.5 85 228.7 84.9 227 84.9C226.3 85 226.3 86.2 227.1 86.2Z" fill="#472A1A"/>
<path d="M241.1 89.8C242.2 90.9 243.7 91.4 245.1 92C245.7 92.3 246.4 92.5 247 92.9C247.6 93.3 248 93.8 248.5 94.2C248.9 94.6 249.7 94.2 249.5 93.6C249.3 92.8 248.6 92.3 248 91.8C247.4 91.4 246.7 91.1 246 90.8C244.7 90.2 243.2 89.8 242.2 88.8C241.5 88.2 240.5 89.1 241.1 89.8Z" fill="#472A1A"/>
<path d="M205.1 75.4C205.9 77 206.9 78.5 207.9 79.9C208.4 80.6 209 81.3 209.5 82C210.1 82.7 210.7 83.4 211.4 83.9C211.9 84.2 212.5 83.6 212.2 83.1C211.7 82.4 211.1 81.8 210.6 81.1C210 80.4 209.5 79.8 209 79.1C208 77.7 207.1 76.3 206.2 74.7C205.8 74 204.7 74.7 205.1 75.4Z" fill="#472A1A"/>
<path d="M215.7 85.8C218.4 86.6 220.9 88.2 222.9 90.1C223.3 90.5 223.9 90.3 224 89.8C224.2 89.2 224.4 88.7 224.7 88.1C225 87.5 225.3 87 225.4 86.4C225.5 85.8 224.9 85.4 224.4 85.8C223.9 86.3 223.7 86.9 223.4 87.5C223.1 88.1 222.9 88.7 222.7 89.4C223.1 89.3 223.5 89.2 223.8 89.1C221.6 87 218.9 85.5 215.9 84.6C215.3 84.5 215 85.6 215.7 85.8Z" fill="#472A1A"/>
<path d="M208 85C208 85.1 208 85.3 208 85.4C208 85.5 208 85.7 208 85.8V85.9C208 86 208 86 208.1 86.1C208.2 86.2 208.2 86.2 208.4 86.3C208.5 86.3 208.6 86.3 208.7 86.3C208.8 86.3 208.8 86.3 208.9 86.2C209 86.2 209 86.1 209 86.1C209.1 86 209.2 85.9 209.2 85.8C209.3 85.7 209.3 85.6 209.4 85.5C209.5 85.3 209.5 85 209.4 84.8C209.3 84.6 209.2 84.5 209 84.5C208.9 84.5 208.8 84.5 208.7 84.5C208.6 84.5 208.5 84.5 208.4 84.6C208.3 84.7 208.2 84.7 208.2 84.8C208.1 84.8 208 84.9 208 85Z" fill="#472A1A"/>
<path d="M226.5 91.2C226.6 91.2 226.6 91.2 226.7 91.2C226.6 91.2 226.5 91.2 226.5 91.2C226.6 91.2 226.7 91.2 226.8 91.2C226.7 91.2 226.7 91.2 226.6 91.2C226.7 91.2 226.8 91.3 227 91.3C226.9 91.3 226.9 91.3 226.8 91.2C226.9 91.3 227 91.3 227.1 91.4L227 91.3C227.1 91.4 227.2 91.5 227.3 91.6L227.2 91.5C227.2 91.5 227.2 91.5 227.2 91.6C227.3 91.7 227.4 91.9 227.6 91.9C227.8 91.9 228 91.9 228.1 91.8C228.2 91.7 228.4 91.6 228.4 91.4C228.4 91.3 228.4 91.3 228.4 91.2C228.4 91.1 228.4 91 228.3 90.9C228.1 90.5 227.7 90.2 227.3 90C226.9 89.8 226.4 89.8 226 89.9C225.8 89.9 225.7 90.1 225.6 90.2C225.5 90.4 225.5 90.6 225.5 90.7C225.7 91.1 226.1 91.3 226.5 91.2Z" fill="#472A1A"/>
<path d="M132.8 43.6C132.5 43.9 132.4 44.3 132.5 44.7C132.9 44.7 133.4 44.7 133.8 44.7C134.4 44.1 134.2 42.8 133.3 42.5C132.4 42.2 131.4 43 131.5 43.9" fill="white"/>
<path d="M132.4 43.1C131.9 43.6 131.8 44.3 132 44.9C132.1 45.2 132.4 45.4 132.7 45.4C133.1 45.4 133.4 45.4 133.8 45.4C133.9 45.4 133.9 45.4 134 45.4C134.2 45.4 134.4 45.3 134.6 45.2C134.7 45.1 134.8 45 134.9 44.8C135.2 44.3 135.2 43.7 135 43.1C134.8 42.5 134.4 42 133.8 41.8C133.2 41.6 132.5 41.7 132 42C131.7 42.2 131.4 42.5 131.3 42.8C131.2 43 131.1 43.1 131.1 43.3C131.1 43.5 131 43.6 131.1 43.8C131.1 44 131.2 44.1 131.3 44.2C131.5 44.4 131.9 44.4 132.1 44.2C131.8 44.4 131.7 44.4 131.9 44.3C132 44.3 132 44.2 132.1 44.2C132.3 44 132.3 43.9 132.3 43.6C132.3 43.7 132.3 43.7 132.3 43.8C132.3 43.7 132.3 43.6 132.4 43.5C132.4 43.6 132.4 43.6 132.3 43.7C132.3 43.6 132.4 43.5 132.5 43.4L132.4 43.5C132.5 43.4 132.6 43.3 132.7 43.2L132.6 43.3C132.7 43.2 132.8 43.1 133 43.1C132.9 43.1 132.9 43.1 132.8 43.2C132.9 43.2 133 43.1 133.1 43.1C133 43.1 133 43.1 132.9 43.1C133 43.1 133.1 43.1 133.2 43.1C133.1 43.1 133.1 43.1 133 43.1C133.1 43.1 133.2 43.1 133.3 43.2C133.2 43.2 133.2 43.2 133.1 43.1C133.2 43.1 133.3 43.2 133.3 43.2L133.2 43.1C133.3 43.2 133.4 43.2 133.4 43.3L133.3 43.2C133.4 43.3 133.4 43.4 133.5 43.5C133.5 43.4 133.5 43.4 133.4 43.3C133.5 43.4 133.5 43.6 133.5 43.7C133.5 43.6 133.5 43.6 133.5 43.5C133.5 43.6 133.5 43.8 133.5 43.9C133.5 43.8 133.5 43.8 133.5 43.7C133.5 43.8 133.5 43.9 133.4 44C133.4 43.9 133.4 43.9 133.5 43.8C133.5 43.9 133.4 44 133.3 44.1C133.5 44 133.6 44 133.8 43.9C133.4 43.9 132.9 43.9 132.5 43.9C132.7 44.1 133 44.2 133.2 44.4C133.2 44.3 133.2 44.2 133.2 44.1C133.2 44.2 133.2 44.2 133.2 44.3C133.2 44.2 133.2 44.1 133.3 44C133.3 44.1 133.3 44.1 133.2 44.2C133.2 44.1 133.3 44.1 133.3 44C133.4 43.9 133.3 43.9 133.3 44C133.3 44 133.3 43.9 133.4 43.9C133.7 43.6 133.7 43.2 133.4 42.9C133.1 42.9 132.6 42.9 132.4 43.1Z" fill="white"/>
<path d="M162.4 62.5C163.1 62.8 164.1 62.4 164.2 61.7C164.4 61 163.1 60.3 162.8 61" fill="white"/>
<path d="M162.2 63.2C163.1 63.5 164.2 63.2 164.7 62.4C165 61.9 165 61.4 164.7 60.9C164.5 60.5 164.1 60.2 163.6 60.1C163.4 60 163.1 60 162.8 60.1C162.6 60.2 162.5 60.2 162.3 60.4C162.1 60.6 161.9 60.9 162 61.2C162.1 61.3 162.1 61.5 162.2 61.5C162.3 61.6 162.5 61.6 162.6 61.6C162.8 61.6 163 61.5 163.1 61.4C163.1 61.4 163.1 61.4 163.2 61.3L163.1 61.4C163.1 61.4 163.2 61.4 163.2 61.3C163.1 61.3 163.1 61.3 163 61.4H163.1C163 61.4 163 61.4 162.9 61.4C163 61.4 163.1 61.4 163.1 61.5C163 61.5 163 61.5 162.9 61.4C163 61.4 163.1 61.5 163.2 61.5L163.1 61.4C163.2 61.5 163.2 61.5 163.3 61.6L163.2 61.5C163.2 61.6 163.3 61.6 163.3 61.7C163.3 61.6 163.3 61.6 163.2 61.5C163.2 61.6 163.2 61.6 163.1 61.7C163.1 61.6 163.1 61.6 163.2 61.5C163.2 61.6 163.1 61.7 163.1 61.7L163.2 61.6C163.1 61.7 163.1 61.7 163 61.8L163.1 61.7C163 61.8 162.9 61.8 162.8 61.9C162.9 61.9 162.9 61.9 163 61.8C162.9 61.9 162.7 61.9 162.6 61.9C162.7 61.9 162.7 61.9 162.8 61.9C162.6 61.9 162.5 61.9 162.3 61.9C162.4 61.9 162.4 61.9 162.5 61.9C162.4 61.9 162.3 61.9 162.2 61.8C162 61.7 161.8 61.8 161.7 61.9C161.6 62 161.4 62.2 161.4 62.3C161.6 62.7 161.9 63.1 162.2 63.2Z" fill="white"/>
<path d="M235 103.7C231.9 105.1 228.6 106.1 225.2 106.7C225 106.7 225.1 107.1 225.3 107.1C228.7 106.5 232 105.5 235.2 104.1C235.4 103.9 235.2 103.6 235 103.7Z" fill="#472A1A"/>
<path d="M234.1 110.2C233.8 110.3 233.5 110.4 233.2 110.4C232.9 110.5 232.6 110.6 232.3 110.7C232.1 110.8 232.2 111 232.4 111C232.7 110.9 233 110.9 233.4 110.8C233.7 110.7 234 110.6 234.3 110.6C234.5 110.6 234.3 110.2 234.1 110.2Z" fill="#472A1A"/>
<path d="M217.9 139.7C217.1 140.7 216.2 141.7 215.3 142.7C214.8 143.2 214.4 143.6 213.9 144.1C213.4 144.6 212.9 145 212.5 145.5C212.4 145.6 212.6 145.8 212.7 145.7C213.2 145.4 213.7 144.9 214.1 144.4C214.6 143.9 215.1 143.4 215.5 143C216.4 142 217.3 141 218.1 140C218.4 139.8 218.1 139.5 217.9 139.7Z" fill="#472A1A"/>
<path d="M217 143.8C216.4 144.3 215.9 144.9 215.3 145.4C215 145.7 214.8 145.9 214.5 146.2C214.2 146.5 213.9 146.7 213.7 147.1C213.6 147.2 213.8 147.4 213.9 147.3C214.2 147.1 214.5 146.8 214.7 146.5C215 146.2 215.3 146 215.5 145.7C216.1 145.2 216.6 144.6 217.2 144.1C217.5 143.9 217.2 143.6 217 143.8Z" fill="#472A1A"/>
<path d="M216.5 147.2C215.9 147.6 215.3 148.1 214.8 148.6C214.5 148.8 214.3 149.1 214 149.3C213.9 149.4 213.7 149.5 213.6 149.7C213.5 149.8 213.3 150 213.3 150.1C213.3 150.2 213.4 150.3 213.5 150.3C213.7 150.3 213.8 150.1 213.9 150C214 149.9 214.2 149.8 214.3 149.6C214.6 149.3 214.8 149.1 215.1 148.9C215.6 148.4 216.2 148 216.8 147.5C216.9 147.4 216.9 147.3 216.9 147.2C216.7 147.2 216.5 147.1 216.5 147.2Z" fill="#472A1A"/>
<path d="M215.9 150.2C215.6 150.4 215.4 150.6 215.1 150.9C215 150.9 215 151 215.1 151.1C215.1 151.2 215.2 151.2 215.3 151.1C215.6 150.9 215.9 150.7 216.2 150.5C216.3 150.4 216.3 150.3 216.3 150.2L216.2 150.1C216 150.1 216 150.1 215.9 150.2Z" fill="#472A1A"/>
<path d="M225.4 133.6C224.5 133.7 223.6 133.9 222.7 134C222.2 134.1 221.8 134.2 221.3 134.3C220.9 134.4 220.4 134.4 220.1 134.7C220 134.8 220.1 134.9 220.2 134.9C220.6 135 221.1 134.8 221.5 134.7C221.9 134.6 222.3 134.5 222.8 134.4C223.7 134.2 224.6 134.1 225.5 134C225.7 133.9 225.7 133.5 225.4 133.6Z" fill="#472A1A"/>
<path d="M223.6 136.1C223.1 136.1 222.5 136.2 222 136.3C221.7 136.4 221.5 136.4 221.2 136.5C220.9 136.6 220.7 136.7 220.5 136.8C220.3 136.9 220.4 137.2 220.6 137.1C220.9 137.1 221.1 137 221.3 136.9C221.5 136.8 221.8 136.8 222 136.7C222.5 136.6 223 136.5 223.5 136.5C223.8 136.5 223.8 136.1 223.6 136.1Z" fill="#472A1A"/>
<path d="M223.8 138.3C223.4 138.3 223 138.4 222.7 138.5C222.5 138.6 222.3 138.6 222.2 138.7C222 138.8 221.9 138.9 221.7 139C221.6 139.1 221.7 139.2 221.8 139.2C222 139.2 222.1 139.1 222.3 139C222.5 138.9 222.6 138.9 222.8 138.8C223.1 138.7 223.5 138.7 223.8 138.6C224.1 138.8 224.1 138.3 223.8 138.3Z" fill="#472A1A"/>
<path d="M223.7 140.8C223.5 140.8 223.3 140.8 223.1 140.9H223V141V141.1H223.1C223.3 141.1 223.5 141.1 223.7 141.2C223.8 141.2 223.8 141.2 223.9 141.1C223.9 141.1 224 141 224 140.9C224 140.8 224 140.8 223.9 140.7C223.8 140.8 223.7 140.8 223.7 140.8Z" fill="#472A1A"/>
<path d="M231 103C230.3 103.8 229.3 104.2 228.3 104.4C227.7 104.5 227.2 104.6 226.6 104.8C226.1 104.9 225.5 105 225.1 105.3C225 105.4 225.1 105.6 225.2 105.6C225.5 105.6 225.7 105.5 226 105.4C226.3 105.3 226.6 105.3 226.8 105.2C227.4 105.1 228 105 228.5 104.8C229.5 104.5 230.5 104.1 231.2 103.4C231.4 103.1 231.1 102.8 231 103Z" fill="#472A1A"/>
<path d="M228.8 107.4C228.1 107.4 227.4 107.4 226.8 107.5C226.5 107.5 226.1 107.6 225.8 107.7C225.6 107.7 225.5 107.8 225.3 107.8C225.1 107.8 225 107.9 224.9 108C224.8 108.1 224.9 108.3 225 108.3C225.2 108.3 225.3 108.3 225.5 108.2C225.7 108.2 225.8 108.1 226 108.1C226.3 108 226.6 108 226.9 107.9C227.6 107.8 228.2 107.8 228.9 107.8C229.1 107.8 229.1 107.4 228.8 107.4Z" fill="#472A1A"/>
<path d="M238.8 131C238.1 131.4 237.3 131.6 236.5 131.7C236.3 131.7 236.3 132.1 236.6 132.1C237.5 132 238.3 131.7 239 131.4C239.1 131.3 239.1 131.2 239.1 131.1C239 130.9 238.9 130.9 238.8 131Z" fill="#472A1A"/>
<path d="M170.5 153.7C167.9 153.5 165.6 154.8 163.1 155.3C161.7 155.6 160.3 155.6 158.9 155.9C157.7 156.2 156.2 156.5 155.1 157.3C155 157.4 155 157.6 155.2 157.6C156.5 157.3 157.7 156.7 159 156.4C160.3 156.1 161.7 156 163.1 155.8C165.6 155.4 168 153.9 170.6 154.2C170.8 154.1 170.8 153.7 170.5 153.7Z" fill="#472A1A"/>
<path d="M165.8 156.8C164.3 156.5 162.8 156.9 161.4 157.3C160.6 157.5 159.9 157.8 159.1 158C158.7 158.1 158.3 158.2 157.9 158.2C157.5 158.3 157 158.3 156.6 158.4C156.4 158.5 156.5 158.7 156.6 158.7C157.3 158.8 158.2 158.6 158.9 158.4C159.6 158.2 160.3 158 161 157.8C162.5 157.3 164 156.8 165.6 157.1C166 157.3 166.1 156.9 165.8 156.8Z" fill="#472A1A"/>
<path d="M165.2 158.7C164.1 159 162.9 159.2 161.8 159.5C161.2 159.6 160.7 159.8 160.1 159.9C159.6 160 159.1 160.1 158.7 160.4C158.5 160.6 158.7 160.9 158.9 160.8C159.3 160.5 159.9 160.5 160.3 160.4C160.9 160.3 161.4 160.1 162 160C163.1 159.7 164.2 159.5 165.3 159.2C165.6 159.1 165.5 158.7 165.2 158.7Z" fill="#472A1A"/>
<path d="M164.6 160.6C163.8 160.9 162.9 161.1 162.1 161.2C161.7 161.3 161.3 161.3 160.9 161.4C160.7 161.4 160.4 161.5 160.2 161.5C160 161.5 159.8 161.5 159.6 161.6C159.5 161.7 159.5 161.9 159.6 161.9C159.8 162 160 161.9 160.2 161.9C160.4 161.9 160.6 161.8 160.8 161.8C161.2 161.7 161.7 161.7 162.1 161.6C163 161.4 163.8 161.2 164.7 161C165 160.9 164.9 160.5 164.6 160.6Z" fill="#472A1A"/>
<path d="M173.4 91C173.4 91.5 173.3 92 173.3 92.6C173.3 93.1 173.3 93.6 173.3 94.2C173.3 94.3 173.4 94.4 173.4 94.4H173.5C173.6 94.4 173.6 94.3 173.6 94.2C173.6 93.7 173.6 93.2 173.6 92.6C173.6 92.1 173.6 91.6 173.7 91C173.9 90.8 173.4 90.8 173.4 91Z" fill="#472A1A"/>
<path d="M175.3 90.5C175.2 91.3 175.1 92.2 175.1 93C175.1 93.3 175 93.6 175.1 93.9C175.2 94.1 175.4 94.4 175.7 94.3C175.9 94.3 175.9 94.1 175.7 94C175.6 93.9 175.6 93.9 175.5 93.8C175.5 93.7 175.4 93.6 175.4 93.5C175.4 93.2 175.4 92.9 175.5 92.6C175.6 91.9 175.6 91.2 175.7 90.5C175.7 90.3 175.3 90.3 175.3 90.5Z" fill="#472A1A"/>
<path d="M177.5 91.9C177.6 92.3 177.6 92.8 177.6 93.2C177.6 93.4 177.6 93.6 177.5 93.9C177.5 94.1 177.3 94.4 177.5 94.5C177.5 94.5 177.6 94.6 177.6 94.5C177.8 94.4 177.8 94.1 177.9 93.9C177.9 93.7 178 93.4 178 93.2C178 92.7 178 92.2 177.9 91.8C177.8 91.6 177.4 91.7 177.5 91.9Z" fill="#472A1A"/>
<path d="M179.6 93.2C179.6 93.4 179.7 93.5 179.7 93.7C179.7 93.6 179.7 93.4 179.6 93.2Z" fill="#472A1A"/>
<path d="M14.4 46.3C14.4 46.9 14.3 47.6 14.3 48.2C14.3 48.8 14.2 49.5 14.2 50.1C14.2 50.3 14.5 50.3 14.5 50.1C14.6 49.5 14.6 48.8 14.7 48.1C14.7 47.4 14.8 46.8 14.8 46.1C14.8 46 14.4 46 14.4 46.3Z" fill="#472A1A"/>
<path d="M17.4 46C17.3 47.2 17.3 48.3 17.2 49.5C17.2 50.1 17.2 50.6 17.1 51.2C17.1 51.5 17.1 51.8 17.1 52.1C17.1 52.4 17 52.6 17.2 52.8C17.2 52.9 17.4 52.9 17.4 52.8C17.5 52.6 17.5 52.3 17.5 52.1C17.5 51.8 17.5 51.6 17.5 51.3C17.5 50.7 17.5 50.1 17.6 49.5C17.6 48.3 17.7 47.2 17.7 46C17.9 45.8 17.5 45.8 17.4 46Z" fill="#472A1A"/>
<path d="M24.9999 54.1C25.0999 54.3 25.1999 54.5 25.1999 54.7C25.1999 54.7 25.1999 54.8 25.2999 54.8H25.3999C25.4999 54.8 25.4999 54.7 25.4999 54.6C25.3999 54.4 25.3999 54.2 25.2999 53.9C25.2999 53.8 25.1999 53.7 25.0999 53.8C24.9999 53.9 24.8999 54 24.9999 54.1Z" fill="#472A1A"/>
<path d="M28.0999 57C28.2999 57.1 28.3999 57.2 28.5999 57.4C28.5999 57.4 28.5999 57.4 28.6999 57.4H28.7999C28.7999 57.4 28.7999 57.4 28.7999 57.3V57.2C28.6999 57 28.5999 56.9 28.3999 56.7C28.3999 56.7 28.3999 56.6 28.2999 56.6H28.1999C28.0999 56.6 28.0999 56.6 27.9999 56.7C27.9999 56.7 27.8999 56.8 27.8999 56.9C27.9999 56.9 27.9999 56.9 28.0999 57Z" fill="#472A1A"/>
<path d="M17.6001 38.5C17.6001 39.4 17.6001 40.3 17.6001 41.1C17.6001 41.5 17.6001 42 17.6001 42.4C17.6001 42.6 17.6001 42.8 17.6001 43C17.6001 43.2 17.6001 43.4 17.6001 43.7C17.7001 43.9 17.9001 43.9 17.9001 43.7C18.0001 43.5 17.9001 43.3 17.9001 43C17.9001 42.8 17.9001 42.6 17.9001 42.4C17.9001 42 17.9001 41.5 17.9001 41.1C17.9001 40.2 17.9001 39.3 17.9001 38.5C18.0001 38.2 17.6001 38.2 17.6001 38.5Z" fill="#472A1A"/>
<path d="M20.7 35.6C20.5 36.8 20.4 38 20.3 39.2C20.3 39.8 20.2 40.4 20.2 41C20.2 41.6 20.1 42.2 20.2 42.8C20.2 43 20.5 43 20.5 42.8C20.6 42.3 20.5 41.6 20.5 41.1C20.5 40.5 20.5 39.9 20.6 39.3C20.7 38.1 20.8 36.9 21 35.7C21.1 35.5 20.7 35.3 20.7 35.6Z" fill="#472A1A"/>
<path d="M23 35.2C23 36 23 36.8 23 37.6C23 37.8 23.3 37.8 23.3 37.6C23.3 36.8 23.3 36 23.3 35.2C23.4 35 23 35 23 35.2Z" fill="#472A1A"/>
<path d="M25.8 36.2C26 37.5 26 38.7 26 40C26 40.2 26.3 40.2 26.3 40C26.4 38.7 26.3 37.3 26.1 36.1C26.2 35.8 25.8 35.9 25.8 36.2Z" fill="#472A1A"/>
<path d="M93.8999 56.3C93.9999 57 94.0999 57.8 93.9999 58.6C93.9999 59 93.8999 59.4 93.7999 59.7C93.6999 60.1 93.4999 60.4 93.3999 60.8C93.3999 60.9 93.5999 61.1 93.6999 61C93.8999 60.7 94.0999 60.3 94.1999 59.9C94.2999 59.5 94.3999 59.1 94.3999 58.7C94.4999 57.9 94.4999 57.1 94.2999 56.3C94.1999 55.9 93.8999 56 93.8999 56.3Z" fill="#472A1A"/>
<path d="M114 91.9C114 92.3 114 92.6 114 93C114 93.2 114 93.4 114 93.5C114 93.7 114 94 114.2 94C114.4 94 114.4 93.7 114.4 93.5C114.4 93.3 114.4 93.1 114.4 93C114.4 92.6 114.4 92.3 114.4 91.9C114.5 91.6 114 91.6 114 91.9Z" fill="#472A1A"/>
<path d="M116.6 91.7C116.7 91.8 116.7 91.8 116.7 91.8C116.7 91.8 116.7 91.8 116.7 91.9V92C116.7 92 116.7 92 116.7 92.1V92.2C116.7 92.3 116.7 92.4 116.7 92.5C116.8 92.8 117.1 93.1 117.4 93.1C117.5 93.1 117.6 93.1 117.7 93C117.8 92.9 117.8 92.8 117.8 92.7C117.8 92.6 117.6 92.6 117.6 92.6C117.6 92.6 117.6 92.6 117.5 92.6H117.4V92.5C117.4 92.5 117.4 92.5 117.4 92.4C117.4 92.4 117.4 92.4 117.4 92.3V92.2C117.4 92.1 117.4 92 117.4 91.9C117.4 91.7 117.3 91.5 117.1 91.4C117 91.3 116.9 91.4 116.8 91.5C116.5 91.5 116.5 91.6 116.6 91.7Z" fill="#472A1A"/>
<path d="M120.3 87.1C120.3 87.7 120.2 88.3 120.2 89C120.2 89.3 120.2 89.6 120.1 89.9C120.1 90 120.1 90.2 120.1 90.3C120.1 90.5 120.1 90.6 120.1 90.8C120.2 90.9 120.3 91 120.4 90.8C120.5 90.7 120.5 90.5 120.5 90.4C120.5 90.3 120.5 90.1 120.5 90C120.5 89.7 120.5 89.4 120.6 89C120.6 88.4 120.7 87.7 120.7 87.1C120.8 86.9 120.4 86.9 120.3 87.1Z" fill="#472A1A"/>
<path d="M122.9 85.2C122.9 85.5 122.9 85.8 122.9 86.1C122.9 86.2 123 86.3 123.1 86.3C123.2 86.3 123.3 86.2 123.3 86.1C123.3 85.8 123.3 85.5 123.3 85.2C123.3 85.1 123.2 85 123.1 85C123 85 122.9 85.1 122.9 85.2Z" fill="#472A1A"/>
<path d="M131.6 91.8C131.8 91.9 131.9 92.1 132.1 92.2L132.2 92.3C132.2 92.3 132.3 92.3 132.3 92.2L132.4 92.1C132.4 92.1 132.4 92 132.3 92C132.2 91.8 132 91.7 131.9 91.5C131.9 91.5 131.8 91.4 131.7 91.4C131.6 91.4 131.6 91.4 131.5 91.5C131.5 91.5 131.4 91.6 131.4 91.7C131.5 91.7 131.6 91.8 131.6 91.8Z" fill="#472A1A"/>
<path d="M139.4 89.9C139.5 90 139.6 90.1 139.7 90.2C139.8 90.3 139.8 90.3 139.9 90.4L140 90.5C140 90.5 140.1 90.5 140.1 90.6C140.2 90.6 140.3 90.6 140.3 90.6C140.4 90.5 140.4 90.5 140.3 90.4C140.3 90.4 140.3 90.3 140.2 90.3L140.1 90.2C140 90.1 140 90.1 139.9 90C139.8 89.9 139.7 89.8 139.6 89.7C139.5 89.6 139.4 89.6 139.3 89.7C139.3 89.7 139.3 89.8 139.4 89.9Z" fill="#472A1A"/>
</svg>
