<svg width="290" height="59" viewBox="0 0 290 59" fill="none" xmlns="http://www.w3.org/2000/svg">
<g clip-path="url(#clip0_641_345)">
<path d="M250.4 19.6C250.6 21.1 250.4 22.5 250.1 23.9C250.8 23.8 251.4 24.4 251.5 25.1C251.7 25.8 251.5 26.4 251.3 27.1C250.4 31 249.5 34.8 248.5 38.6C248.1 40.2 247.7 41.8 246.8 43.2C246.1 44.4 245.1 45.4 244.2 46.4C242.3 48.4 240.4 50.4 238.6 52.5C237.2 54 235.8 55.5 234 56.2C231.4 57.2 228.2 56.6 225.8 58.1H129.3C125.2 56.9 121 56.7 116.7 56.4C109.1 55.9 101.5 54.2 94.4999 51.2C93.3999 50.7 92.2999 50.2 91.4999 49.3C90.7999 48.5 90.3999 47.4 89.8999 46.4C88.5999 43.3 86.6999 40.5 85.3999 37.5C84.0999 34.4 83.2999 30.9 84.3999 27.8C92.7999 25.3 101.2 22.7 109.6 20.2C110 20.1 110.3 20 110.6 19.7C110.9 19.3 110.8 18.8 110.8 18.4C110.3 15.1 109.9 11.7 109.4 8.39999C129.2 8.89999 149 9.69999 168.7 11.4C188.5 13.1 208.3 15.7 228 18.8C235.7 20 243.4 18.7 251.2 18.9C250.7 19.1 250.6 19.4 250.4 19.6Z" fill="#D3974E"/>
<path d="M140.2 3.60001C157 2.50001 173.9 3.90001 190.7 5.30001C199.9 6.10001 209 6.90001 218.2 7.70001C222.9 8.10001 227.6 8.50001 232 10.1C234.4 10.9 236.7 12.1 238.9 13.2C242.7 15.1 246.5 17 250.3 19C245.3 19.1 240.3 20.1 235.7 22C241.3 22.1 246.8 22.4 251.9 25.1C249.6 28.4 247.6 31.2 244 33.2C242.4 34.1 240.7 34.6 239 35.1C227.7 38.3 215.9 39.4 204.2 39C199.1 38.8 193.8 38.4 188.8 39.4C186.1 39.9 183.4 40.9 180.7 41.1C177.7 41.3 174.8 40.7 171.9 40C166.8 38.9 161.7 37.7 156.6 36.6C151.3 35.4 145.6 34.3 140.5 36.1C138.8 36.7 137.2 37.7 135.4 38.1C132.9 38.7 130.3 38.1 127.7 37.5C113.4 34.3 99.1 31.1 84.8 27.9C100.5 22.6 116.5 18.1 132.7 14.4C128.4 13.3 124.1 12.1 119.8 11C117.6 10.4 105.3 9.30001 109.8 6.80001C113 5.00001 123.5 5.40001 127.1 4.90001C131.4 4.40001 135.8 3.90001 140.2 3.60001Z" fill="#EBC072"/>
<path d="M146.9 2.5C144.4 2.5 141.9 2.6 139.4 2.8C138.2 2.9 137.1 3 135.9 3.2C134.7 3.4 133.4 3.5 132.3 4.1C131.9 4.3 132.1 4.9 132.5 4.9C133.6 5 134.8 4.7 136 4.6C137.2 4.4 138.4 4.3 139.7 4.2C142.1 4 144.5 3.9 146.9 3.9C147.8 3.9 147.8 2.5 146.9 2.5Z" fill="#472A1A"/>
<path d="M129.9 4.60001C129.1 4.40001 128.3 4.30001 127.4 4.20001C127 4.20001 126.6 4.20001 126.2 4.20001C125.8 4.20001 125.1 4.20001 124.8 4.70001C124.7 4.90001 124.7 5.20001 124.9 5.40001C125.3 5.70001 125.8 5.60001 126.2 5.60001C126.6 5.60001 126.9 5.60001 127.3 5.60001C128.1 5.60001 128.7 5.70001 129.4 5.90001C129.7 6.00001 130.1 5.80001 130.2 5.40001C130.5 5.00001 130.3 4.70001 129.9 4.60001Z" fill="#472A1A"/>
<path d="M122.3 5.2C119.4 5.5 116.5 5.8 113.5 6.1C112.1 6.3 110.6 6.4 109.2 6.6C108.3 6.7 107.2 7 107.3 8.1C107.4 8.9 108.5 8.9 108.5 8.1C108.4 8.2 108.4 8.2 108.6 8.1C108.7 8.1 108.8 8 108.8 8C109.1 7.9 109.4 7.9 109.7 7.9C110.3 7.8 110.8 7.8 111.4 7.7C112.6 7.5 113.8 7.4 115 7.3C117.4 7 119.8 6.8 122.2 6.5C123.2 6.4 123.2 5.1 122.3 5.2Z" fill="#472A1A"/>
<path d="M108.3 9.2C115.9 11.2 123.4 13.2 131 15C131.9 15.2 132.2 13.9 131.4 13.6C123.9 11.6 116.3 9.7 108.7 7.8C107.8 7.7 107.5 9 108.3 9.2Z" fill="#472A1A"/>
<path d="M134.5 15.2C133 15.1 131.5 15.1 130 15.2C129.3 15.2 128.5 15.3 127.8 15.3C127.4 15.3 127 15.4 126.7 15.4C126.3 15.4 126 15.5 125.8 15.9C125.7 16.1 125.7 16.3 125.9 16.5C126.1 16.8 126.5 16.8 126.9 16.8C127.3 16.8 127.7 16.7 128 16.7C128.7 16.6 129.4 16.6 130.1 16.6C131.6 16.5 133 16.6 134.5 16.6C135.3 16.6 135.3 15.3 134.5 15.2Z" fill="#472A1A"/>
<path d="M124.6 15.8C117.9 18.1 111.2 20 104.3 21.7C97.4999 23.4 90.4999 24.7 83.8999 27.2C83.1999 27.5 83.4999 28.5 84.1999 28.3C90.9999 26.5 97.7999 24.7 104.6 23.1C111.4 21.4 118.2 19.5 124.8 17.1C125.7 16.8 125.4 15.5 124.6 15.8Z" fill="#472A1A"/>
<path d="M84.1 28.6C98.1 32.5 112.3 35.7 126.6 38C127.5 38.1 127.9 36.8 127 36.6C112.7 34.2 98.4 31.2 84.4 27.4C83.6 27.2 83.3 28.4 84.1 28.6Z" fill="#472A1A"/>
<path d="M130.2 39.2C131.7 38.8 133.1 39.7 134.6 39.5C136.1 39.3 137.1 37.9 138.4 37.2C139.8 36.5 141.4 36.3 143 36.3C143.8 36.3 144.6 36.3 145.4 36.4C146.2 36.5 147 36.6 147.8 36.5C148.3 36.4 148.4 35.6 147.9 35.4C146.5 34.8 144.6 34.8 143.2 34.8C141.6 34.8 140 35 138.5 35.6C137.8 35.9 137.2 36.2 136.6 36.6C136 37.1 135.4 37.8 134.6 38C133.8 38.2 132.9 37.9 132.1 37.8C131.3 37.7 130.6 37.6 129.8 37.8C129 38.1 129.4 39.4 130.2 39.2Z" fill="#472A1A"/>
<path d="M155 38.1C159.4 38.8 163.7 39.5 168.1 40.3C172.5 41.1 176.8 42.1 181.1 42.8C181.9 42.9 182.3 41.7 181.5 41.5C177.2 40.4 172.8 39.7 168.5 38.9C164.1 38.1 159.8 37.5 155.4 36.8C154.6 36.8 154.2 38 155 38.1Z" fill="#472A1A"/>
<path d="M183.7 41.9C186.9 40.3 190.6 40.1 194.1 40.1C198 40 201.9 40 205.8 39.9C209.7 39.8 213.7 39.8 217.6 39.7C221.4 39.6 225.3 39.7 229.1 39.2C230 39.1 230 37.7 229.1 37.8C221.1 38.5 212.9 38.3 204.8 38.4C200.8 38.5 196.8 38.5 192.8 38.6C189.4 38.7 186 39.1 182.9 40.6C182.2 41.1 182.9 42.3 183.7 41.9Z" fill="#472A1A"/>
<path d="M232.8 38C236.1 35.6 240.4 36.7 244.1 35.4C246.1 34.7 247.3 33.1 248.6 31.5C249.4 30.6 250.1 29.6 250.9 28.7C251.6 27.8 252.5 27 252.9 26C253.1 25.5 252.4 25 252 25.3C251.1 25.9 250.5 26.9 249.9 27.7C249.2 28.6 248.4 29.6 247.7 30.5C247.1 31.3 246.4 32.2 245.7 32.9C244.9 33.7 243.9 34.1 242.9 34.3C239.4 35.1 235.4 34.5 232.3 36.8C231.4 37.4 232.1 38.5 232.8 38Z" fill="#472A1A"/>
<path d="M251.8 24.1C246 22.6 240.1 21.5 234.1 20.7C233.4 20.6 233.2 21.5 233.6 21.9C233.9 22.2 234.1 22.4 234.4 22.5C234.8 22.7 235.2 22.2 235.1 21.8C235 21.4 234.8 21.2 234.6 20.9C234.4 21.3 234.3 21.7 234.1 22.1C239.9 22.9 245.7 24 251.5 25.3C252.3 25.5 252.6 24.3 251.8 24.1Z" fill="#472A1A"/>
<path d="M235.1 22C237.5 21.8 240 21.5 242.4 21.1C245.2 20.7 248 20.5 250.8 19.9C251.6 19.7 251.4 18.5 250.6 18.5C247.9 18.7 245.1 19.2 242.4 19.6C240 19.9 237.6 20.3 235.2 20.5C234.2 20.7 234.2 22.1 235.1 22Z" fill="#472A1A"/>
<path d="M251.4 18.4C250.1 17.1 248.5 16.4 246.8 15.7C245.9 15.3 245 15 244 14.7C243 14.3 242 13.9 241 13.7C240.3 13.5 239.8 14.6 240.5 14.9C241.4 15.3 242.3 15.6 243.2 15.9C244.1 16.2 245 16.6 245.9 16.9C247.5 17.5 249.1 18.2 250.4 19.3C251.1 19.8 252 19 251.4 18.4Z" fill="#472A1A"/>
<path d="M239 12.7C238.8 12.7 238.5 12.7 238.3 12.7C238.2 12.7 238.1 12.7 237.9 12.7C237.7 12.7 237.5 12.7 237.3 12.8C237.1 12.9 237 13.1 237 13.4C237 13.6 237.1 13.8 237.3 14C237.5 14.1 237.7 14.1 237.9 14.1C238 14.1 238.1 14.1 238.3 14.1C238.5 14.1 238.8 14.1 239 14.1C239.2 14.1 239.3 14 239.5 13.9C239.6 13.8 239.7 13.6 239.7 13.4C239.7 13 239.4 12.7 239 12.7Z" fill="#472A1A"/>
<path d="M237.1 11.9C236.7 11.3 236.3 10.9 235.7 10.5C235.5 10.3 235.2 10.2 235 10.1C234.8 10 234.7 9.9 234.5 9.9C234.3 9.8 234.1 9.7 233.9 9.8C233.6 9.8 233.4 9.9 233.3 10.2C233.2 10.4 233.2 10.8 233.4 11C233.5 11.1 233.7 11.2 233.8 11.2C233.9 11.2 233.9 11.2 234 11.3C234.1 11.3 234.1 11.3 234.2 11.4C234.3 11.5 234.1 11.3 234.2 11.4H234.3C234.5 11.5 234.8 11.7 235 11.8C235 11.8 235 11.8 235.1 11.9C235.1 11.9 235.1 11.9 235.2 12C235.3 12.1 235.4 12.2 235.5 12.3C235.6 12.4 235.7 12.5 235.8 12.6C235.8 12.6 235.8 12.7 235.9 12.7C236 12.8 235.8 12.6 235.9 12.7C235.9 12.8 236 12.8 236 12.9C236.2 13.2 236.6 13.4 237 13.2C237.2 12.7 237.4 12.3 237.1 11.9Z" fill="#472A1A"/>
<path d="M232.3 9.19999C227.6 8.69999 223 8.09999 218.3 7.59999C217.4 7.49999 217.4 8.89999 218.3 8.99999C223 9.49999 227.6 10.1 232.3 10.6C233.2 10.7 233.1 9.29999 232.3 9.19999Z" fill="#472A1A"/>
<path d="M108.1 8.3C108.8 10.2 109.1 12.1 109.3 14.1C109.4 15.1 109.5 16.1 109.6 17.1C109.7 18 109.6 19.2 110.2 19.9C110.4 20.2 110.9 20.1 111.1 19.8C111.3 19.3 111.2 18.9 111.2 18.4C111.1 17.9 111.1 17.4 111 16.9C110.9 15.9 110.8 14.8 110.6 13.8C110.3 11.8 110 9.8 109.3 7.9C109.2 7.1 107.8 7.5 108.1 8.3Z" fill="#472A1A"/>
<path d="M83.5001 28.5C83.9001 30.7 84.2001 33 84.6001 35.2C84.8001 36.3 85.0001 37.4 85.2001 38.6C85.3001 39.1 85.4001 39.6 85.5001 40.2C85.6001 40.7 85.6001 41.4 86.0001 41.8C86.3001 42.2 86.9001 42.2 87.0001 41.7C87.2001 41.2 87.0001 40.6 86.9001 40.1C86.8001 39.6 86.7001 39.1 86.6001 38.5C86.4001 37.3 86.2001 36.2 86.0001 35C85.6001 32.7 85.2001 30.4 84.8001 28.2C84.7001 27.3 83.4001 27.6 83.5001 28.5Z" fill="#472A1A"/>
<path d="M86.6 43C87.4 43.8 88.3 44.4 89.1 45.3C89.4 45.6 89.7 46 89.9 46.5C90.1 46.9 90.2 47.4 90.1 47.8C90 48.2 90.2 48.5 90.6 48.6C91 48.7 91.4 48.5 91.4 48.1C91.7 46.8 91.2 45.5 90.4 44.5C89.6 43.5 88.5 42.9 87.6 42C86.9 41.5 86 42.3 86.6 43Z" fill="#472A1A"/>
<path d="M128.9 39.1C129.3 40.1 129.6 41.1 129.9 42.2C130 42.7 130.2 43.2 130.3 43.7C130.4 44 130.4 44.2 130.5 44.5C130.5 44.6 130.5 44.7 130.6 44.8C130.7 45 130.8 45.1 130.9 45.3C131 45.5 131.3 45.6 131.5 45.5C131.7 45.4 131.8 45.2 131.9 45C131.9 44.9 131.9 44.8 131.9 44.8C131.9 44.9 131.8 45 131.8 45.1C131.9 44.9 132 44.7 132 44.4C132 44.3 132 44.2 131.9 44.1C131.8 43.8 131.8 43.6 131.7 43.3C131.6 42.8 131.5 42.3 131.3 41.8C131 40.8 130.7 39.7 130.3 38.7C130.2 38.4 129.8 38.1 129.5 38.2C129 38.4 128.7 38.8 128.9 39.1Z" fill="#472A1A"/>
<path d="M140.2 36.8C140.5 37.5 140.5 38.3 140.3 39.1C140.1 39.9 139.5 40.5 138.9 41C138.3 41.6 137.8 42.2 137.4 42.9C137.2 43.2 137 43.6 136.9 44C136.8 44.5 136.8 44.9 137.2 45.2C137.3 45.3 137.6 45.3 137.8 45.2C138.2 44.9 138.1 44.5 138.3 44.1C138.4 43.7 138.6 43.4 138.8 43.1C139.3 42.4 139.9 41.9 140.5 41.3C141.6 39.9 142.1 38.2 141.5 36.5C141.4 36.2 141.1 35.9 140.7 36C140.4 36.1 140.1 36.5 140.2 36.8Z" fill="#472A1A"/>
<path d="M250.3 18.6C250.1 19.3 249.9 20.1 249.8 20.8C249.7 21.2 249.6 21.5 249.5 21.9C249.4 22.3 249.3 22.6 249.2 23C249.1 23.4 249.3 23.8 249.7 23.8C250.1 23.9 250.4 23.7 250.5 23.3C250.6 22.9 250.7 22.6 250.8 22.2C250.9 21.8 251 21.5 251.1 21.1C251.3 20.4 251.4 19.6 251.6 18.9C251.7 18.6 251.5 18.1 251.1 18.1C250.8 18.1 250.4 18.3 250.3 18.6Z" fill="#472A1A"/>
<path d="M250.9 25.5C250 28.5 249.2 31.5 248.5 34.5C247.9 37.4 247.6 40.5 246.4 43.2C246 44 247.2 44.7 247.6 43.9C249 41.3 249.2 38.1 249.8 35.2C250.5 32.1 251.2 28.9 252.1 25.8C252.3 25 251.1 24.7 250.9 25.5Z" fill="#472A1A"/>
<path d="M245.7 44.4C245.2 44.8 244.8 45.2 244.4 45.6C244.2 45.9 244 46.1 243.8 46.4C243.7 46.6 243.6 46.7 243.5 46.9C243.5 47.1 243.5 47.3 243.5 47.5C243.5 47.7 243.8 47.9 244 47.8C244.2 47.7 244.3 47.6 244.5 47.5C244.6 47.4 244.7 47.2 244.8 47.1C244.9 47 245 46.9 245.1 46.7C245.1 46.6 245.2 46.6 245.2 46.5C245.2 46.6 245.1 46.6 245.2 46.5C245.2 46.5 245.2 46.4 245.3 46.4C245.7 46 246.1 45.5 246.5 45.2C246.6 45.1 246.7 44.9 246.7 44.7C246.7 44.5 246.6 44.3 246.5 44.2C246.4 44.1 246.2 44 246 44C246 44.2 245.8 44.3 245.7 44.4Z" fill="#472A1A"/>
<path d="M243.7 35.8C243.6 36.7 243.5 37.6 243.3 38.4C243.2 38.8 243.1 39.3 243 39.7C242.9 40.1 242.6 40.7 242.7 41.1C242.8 41.4 243.2 41.6 243.5 41.4C243.9 41.1 244 40.4 244.2 40C244.3 39.6 244.5 39.1 244.6 38.7C244.9 37.7 245 36.8 245.1 35.8C245.1 35.4 244.8 35.1 244.4 35.1C243.9 35.1 243.7 35.4 243.7 35.8Z" fill="#472A1A"/>
<path d="M241.9 42.9C241.9 44.4 241.3 45.8 240.7 47.1C240.1 48.5 239.4 50.1 239.6 51.6C239.7 51.9 240 52.1 240.3 52.1C240.6 52 240.8 51.8 240.9 51.4C240.9 51.1 240.9 50.7 241 50.4C241.1 50 241.2 49.7 241.3 49.3C241.5 48.6 241.8 47.9 242.1 47.2C242.7 45.8 243.3 44.4 243.3 42.8C243.2 42.1 241.8 42.1 241.9 42.9Z" fill="#472A1A"/>
<path d="M243 47.3C242.8 47.5 242.7 47.6 242.5 47.8C242.4 47.9 242.3 48.1 242.2 48.3C242.1 48.5 242 48.7 242 48.9C242 49.1 242.1 49.3 242.2 49.5C242.3 49.6 242.4 49.6 242.6 49.6C242.7 49.6 242.8 49.6 242.9 49.5C243 49.5 243 49.4 243.1 49.3C243.2 49.2 243.3 49.1 243.3 48.9C243.3 49 243.3 49 243.2 49.1C243.3 48.9 243.4 48.7 243.5 48.5L243.4 48.6C243.5 48.5 243.6 48.3 243.8 48.2C243.9 48.1 244 47.9 244 47.7C244 47.5 243.9 47.3 243.8 47.2C243.7 47.1 243.5 47 243.3 47C243.2 47 243.2 47 243.1 47C243.1 47.2 243 47.2 243 47.3Z" fill="#472A1A"/>
<path d="M6.40005 10.7C33.3 10.9 60.2 10.8 87.1 10.7C94.5 10.7 102 10.9 109.4 10.6C110.3 10.6 110.3 9.30001 109.4 9.20001C102.8 9.00001 96.1 9.10001 89.5 9.10001C82.8 9.10001 76.0001 9.10001 69.3001 9.10001C55.8001 9.10001 42.3001 9.10001 28.7001 9.10001C21.3001 9.10001 13.8 9.10001 6.40005 9.10001C5.60005 9.30001 5.60005 10.6 6.40005 10.7Z" fill="#472A1A"/>
<path d="M234.1 10.4C243.6 10.5 253.1 10.5 262.7 10.4C267.7 10.4 272.8 10.7 277.8 10.3C278.7 10.2 278.7 8.99999 277.8 8.89999C273.2 8.59999 268.4 8.79999 263.8 8.79999C261.8 8.79999 259.8 8.79999 257.8 8.79999C255 8.79999 252.1 8.79999 249.3 8.79999C244.3 8.79999 239.2 8.79999 234.2 8.79999C233.2 9.09999 233.2 10.4 234.1 10.4Z" fill="#472A1A"/>
<path d="M90.3999 49.1C90.4999 49.3 90.5999 49.4 90.5999 49.6C90.5999 49.5 90.5999 49.5 90.4999 49.4C90.5999 49.7 90.6999 49.9 90.7999 50.2C90.7999 50.3 90.8999 50.5 90.8999 50.6C90.8999 50.7 90.8999 50.7 90.9999 50.8C91.0999 51 91.1999 51.2 91.3999 51.3C91.5999 51.4 91.8999 51.4 92.0999 51.2C92.2999 51 92.3999 50.8 92.2999 50.6C92.2999 50.5 92.2999 50.3 92.1999 50.2C92.1999 50 92.0999 49.8 91.9999 49.7C91.8999 49.3 91.6999 48.9 91.4999 48.5C91.2999 48.2 90.8999 48.1 90.5999 48.3C90.2999 48.4 90.2999 48.8 90.3999 49.1Z" fill="#472A1A"/>
<path d="M91.2999 51.7C91.9999 52.1 92.5999 52.1 93.3999 52.1C94.0999 52.1 94.7999 52.1 95.4999 52.2C96.1999 52.3 96.7999 52.6 97.3999 53C97.9999 53.4 98.5999 53.9 99.2999 54.2C99.9999 54.5 100.4 53.4 99.7999 53C99.1999 52.6 98.5999 52.1 97.9999 51.8C97.3999 51.4 96.6999 51.2 95.9999 51C95.2999 50.8 94.5999 50.8 93.7999 50.8C93.1999 50.8 92.3999 51 91.7999 50.7C91.1999 50.4 90.6999 51.4 91.2999 51.7Z" fill="#472A1A"/>
<path d="M100.9 54.4C104.8 55.2 108.7 55.9 112.6 56.5C114.4 56.7 116.2 56.9 118 57.1C119.9 57.2 122 57.5 123.9 57C124.4 56.9 124.4 56.1 123.9 56C122.2 55.6 120.3 55.8 118.5 55.7C116.5 55.6 114.5 55.4 112.6 55.1C108.8 54.6 105.1 53.9 101.3 53.1C100.5 53 100.1 54.3 100.9 54.4Z" fill="#472A1A"/>
<path d="M126.9 57.3C127 57.3 127.1 57.3 127.2 57.3C127.3 57.3 127.5 57.3 127.6 57.3C127.7 57.3 127.7 57.3 127.8 57.2C127.9 57.2 127.9 57.1 128 57L128.1 56.9C128.1 56.8 128.2 56.7 128.2 56.7C128.2 56.6 128.2 56.6 128.2 56.5C128.2 56.4 128.2 56.4 128.1 56.3C128.1 56.2 128 56.2 127.9 56.1C127.8 56 127.8 56 127.7 56C127.6 56 127.4 56 127.3 56C127.2 56 127.1 56 127 56C126.9 56 126.8 56 126.7 56.1C126.6 56.1 126.5 56.2 126.5 56.2C126.4 56.3 126.4 56.3 126.4 56.4C126.4 56.5 126.3 56.6 126.3 56.7C126.3 56.8 126.3 56.8 126.3 56.9C126.3 57 126.4 57.1 126.5 57.2L126.6 57.3C126.7 57.3 126.8 57.3 126.9 57.3Z" fill="#472A1A"/>
<path d="M130.6 47.1C130.9 47.8 131.2 48.6 131.3 49.4C131.5 50.2 131.5 51 131.5 51.7C131.5 52 131.8 52.3 132.1 52.3C132.5 52.3 132.7 52 132.7 51.7C132.8 50.8 132.7 49.9 132.5 49C132.3 48.1 132 47.3 131.6 46.4C131.5 46.1 131 46 130.7 46.2C130.6 46.4 130.5 46.7 130.6 47.1Z" fill="#472A1A"/>
<path d="M137.7 47.7C137.6 47.7 137.6 47.7 137.5 47.7H137.3C137.2 47.7 137.2 47.7 137.1 47.8C137 47.8 136.9 47.9 136.9 48C136.8 48.1 136.8 48.1 136.8 48.2C136.8 48.3 136.8 48.3 136.8 48.4C136.8 48.5 136.8 48.6 136.9 48.7C136.9 48.8 137 48.9 137 48.9L137.1 49C137.2 49.1 137.3 49.1 137.4 49.1C137.5 49.1 137.6 49.1 137.7 49.1C137.8 49.1 137.8 49.1 137.9 49C138 48.9 138.1 48.9 138.2 48.7C138.2 48.6 138.2 48.6 138.3 48.5C138.3 48.4 138.3 48.3 138.3 48.2C138.3 48.1 138.3 48 138.2 47.9L138.1 47.8C137.9 47.8 137.8 47.7 137.7 47.7Z" fill="#472A1A"/>
<path d="M238.9 52.3C238.2 53.2 237.1 53.9 236 54.3C235.4 54.6 234.7 54.8 234 54.9C233.6 55 233.3 55.1 232.9 55.1C232.5 55.2 232.1 55.2 231.8 55.5C231.6 55.8 231.6 56.2 231.9 56.4C232.3 56.7 232.8 56.5 233.2 56.4C233.6 56.3 234 56.2 234.4 56.1C235.2 55.9 235.9 55.6 236.6 55.3C237.9 54.7 239.1 54 239.9 52.8C240.1 52.5 239.9 52 239.7 51.9C239.4 51.9 239.1 52 238.9 52.3Z" fill="#472A1A"/>
<path d="M228.6 56.8C228.5 56.9 228.5 56.9 228.4 56.9C228.5 56.8 228.4 56.9 228.3 56.9C228.2 56.9 228.2 56.9 228.1 56.9C228.3 56.9 228.1 56.9 228 56.9C227.9 56.9 227.9 56.9 227.8 56.9C227.7 56.9 227.5 56.9 227.4 56.9C227.1 56.9 226.7 56.9 226.4 56.8C226 56.8 225.7 56.7 225.3 56.7C225 56.7 224.7 56.9 224.6 57.3C224.6 57.6 224.8 58 225.1 58C225.5 58.1 226 58.1 226.4 58.1C226.8 58.1 227.2 58.1 227.5 58.2C228.2 58.2 228.9 58.1 229.4 57.6C229.6 57.3 229.7 56.9 229.4 56.7C229.3 56.5 228.9 56.5 228.6 56.8Z" fill="#472A1A"/>
<path d="M241.8 49.5C241.5 49.8 241.2 50 240.9 50.3C240.7 50.4 240.6 50.6 240.4 50.7C240.2 50.8 240.1 51 240 51.2C240 51.3 240 51.4 240 51.6C240 51.8 240.1 52 240.4 52.1C240.5 52.1 240.6 52.1 240.7 52.1C240.9 52.1 241.1 52 241.2 51.9L241.3 51.8C241.5 51.7 241.6 51.5 241.8 51.4C242.1 51.1 242.4 50.9 242.7 50.6C242.8 50.5 242.9 50.3 242.9 50.1C242.9 49.9 242.8 49.7 242.7 49.6C242.6 49.5 242.4 49.4 242.2 49.4C242.1 49.3 241.9 49.4 241.8 49.5Z" fill="#472A1A"/>
<path d="M182 42.3C181.9 44.2 182 46.2 182.3 48.1C182.5 49.1 182.5 49.9 182.3 50.9C182.1 51.7 181.6 52.7 182 53.5C182.1 53.8 182.6 53.9 182.8 53.6C183.1 53.2 183.1 52.8 183.2 52.4C183.3 51.9 183.5 51.5 183.6 51C183.8 50.1 183.8 49.2 183.7 48.3C183.4 46.3 183.2 44.4 183.3 42.4C183.4 41.4 182.1 41.4 182 42.3Z" fill="#472A1A"/>
<path d="M184.8 41.8C184.1 44.3 183.5 46.7 182.9 49.2C182.6 50.4 182.3 51.5 182 52.7C181.8 53.7 181.2 55.1 181.5 56.1C181.6 56.5 182.2 56.6 182.4 56.2C182.7 55.7 182.8 55.1 182.9 54.5C183 53.9 183.2 53.3 183.3 52.7C183.6 51.6 183.9 50.4 184.2 49.3C184.8 46.9 185.5 44.5 186.1 42.1C186.2 41.4 185 41 184.8 41.8Z" fill="#472A1A"/>
<path d="M183.6 56.7C183.6 56.8 183.7 56.9 183.7 57C183.7 57 183.7 57.1 183.8 57.1C183.8 57.2 183.9 57.2 183.9 57.3L184 57.4C184.1 57.4 184.1 57.5 184.2 57.4H184.3C184.3 57.4 184.4 57.4 184.4 57.3C184.5 57.3 184.5 57.2 184.6 57.2C184.6 57.1 184.7 57.1 184.7 57C184.7 56.9 184.8 56.8 184.8 56.7C184.8 56.6 184.8 56.5 184.8 56.3C184.8 56.2 184.7 56.1 184.6 56L184.5 55.9C184.4 55.8 184.3 55.8 184.2 55.8C184.1 55.8 184 55.8 183.9 55.9C183.8 55.9 183.7 56 183.7 56C183.6 56.1 183.6 56.2 183.5 56.3C183.6 56.5 183.6 56.6 183.6 56.7Z" fill="#472A1A"/>
<path d="M129.4 58.5C129.5 58.5 129.6 58.5 129.7 58.5C129.8 58.5 129.8 58.5 129.9 58.5H130H130.1C130.2 58.5 130.3 58.5 130.4 58.4C130.5 58.4 130.5 58.3 130.5 58.3C130.6 58.2 130.6 58.2 130.6 58.1C130.6 58 130.7 57.9 130.7 57.8C130.7 57.7 130.7 57.7 130.7 57.6C130.7 57.5 130.6 57.4 130.5 57.3L130.4 57.2C130.3 57.2 130.3 57.2 130.2 57.1C130.1 57.1 130.1 57.1 130 57.1H129.9C129.8 57.1 129.8 57.1 129.7 57.1C129.6 57.1 129.5 57.1 129.4 57.1C129.3 57.1 129.2 57.1 129.1 57.2C129 57.2 128.9 57.3 128.9 57.3C128.8 57.4 128.8 57.4 128.8 57.5C128.8 57.6 128.7 57.7 128.7 57.8C128.7 57.9 128.7 57.9 128.7 58C128.7 58.1 128.8 58.2 128.9 58.3C129.1 58.4 129.3 58.5 129.4 58.5Z" fill="#472A1A"/>
<path d="M116.4 54.9C110.2 54.9 104 54.9 97.8 54.9C94.7 54.9 91.7 54.9 88.6 54.9C87.1 54.9 85.6 54.9 84.1 54.9C82.6 54.9 81 54.7 79.5 55.1C79 55.2 79 56.1 79.5 56.2C80.9 56.5 82.4 56.3 83.9 56.4C85.4 56.4 86.9 56.4 88.4 56.4C91.5 56.4 94.7 56.4 97.8 56.4C104 56.4 110.2 56.4 116.4 56.4C117.3 56.3 117.3 54.9 116.4 54.9Z" fill="#472A1A"/>
<path d="M93.4001 50.3C92.5001 50.3 91.7001 50.3 90.8001 50.3C90.4001 50.3 90.0001 50.3 89.5001 50.3C89.0001 50.3 88.5 50.2 88.1 50.5C87.7 50.7 87.7 51.2 88.1 51.4C88.4 51.6 88.6001 51.6 88.9001 51.6C89.1001 51.6 89.3001 51.6 89.5001 51.6C89.9001 51.6 90.4001 51.6 90.8001 51.6C91.7001 51.6 92.5001 51.6 93.4001 51.6C94.3001 51.6 94.3001 50.3 93.4001 50.3Z" fill="#472A1A"/>
<path d="M89.3999 48.3C87.7999 48.3 86.0999 48.3 84.4999 48.3C83.6999 48.3 82.8999 48.3 81.9999 48.3C81.1999 48.3 80.2999 48.1 79.5999 48.4C78.9999 48.6 78.9999 49.3 79.5999 49.5C80.2999 49.8 81.2999 49.6 81.9999 49.6C82.7999 49.6 83.5999 49.6 84.4999 49.6C86.0999 49.6 87.7999 49.6 89.3999 49.6C90.2999 49.6 90.2999 48.3 89.3999 48.3Z" fill="#472A1A"/>
<path d="M82.1001 42.6C81.9001 42.6 81.8001 42.6 81.6001 42.6C81.5001 42.6 81.4001 42.6 81.3001 42.6C81.2001 42.6 81.1001 42.6 81.0001 42.7C81.0001 42.7 80.9001 42.7 80.9001 42.8C80.7001 42.9 80.6001 43.1 80.6001 43.3C80.6001 43.5 80.7001 43.7 80.9001 43.8C81.0001 43.9 81.1001 43.9 81.2001 44C81.3001 44 81.5001 44 81.6001 44C81.8001 44 81.9001 44 82.1001 44C82.3001 44 82.5001 43.9 82.6001 43.8C82.7001 43.7 82.7001 43.7 82.7001 43.6C82.7001 43.5 82.8001 43.4 82.8001 43.3C82.8001 43.1 82.7001 42.9 82.6001 42.8C82.5001 42.7 82.3001 42.6 82.1001 42.6Z" fill="#472A1A"/>
<path d="M82.4 33.9C81 33.9 79.7 33.9 78.3 33.9C77 33.9 75.6 33.8 74.2 34.1C73.7 34.2 73.7 35.1 74.2 35.2C75.5 35.5 76.9 35.4 78.3 35.4C79.7 35.4 81 35.4 82.4 35.4C83.3 35.3 83.3 33.9 82.4 33.9Z" fill="#472A1A"/>
<path d="M109.8 18.6C109.1 18.6 108.4 18.6 107.8 18.6C107.5 18.6 107.1 18.6 106.8 18.6C106.6 18.6 106.4 18.6 106.2 18.6C106 18.6 105.9 18.7 105.7 18.8C105.2 19 105.2 19.6 105.7 19.7C105.9 19.8 106 19.8 106.2 19.9C106.4 20 106.6 19.9 106.8 19.9C107.1 19.9 107.5 19.9 107.8 19.9C108.5 19.9 109.2 19.9 109.8 19.9C110.2 19.9 110.5 19.6 110.5 19.2C110.5 18.9 110.2 18.6 109.8 18.6Z" fill="#472A1A"/>
<path d="M98.1 16.7C99 16.7 99 15.3 98.1 15.3C97.2 15.2 97.2 16.7 98.1 16.7Z" fill="#472A1A"/>
<path d="M250.1 24C251.3 24 252.6 24 253.8 24C255 24 256.3 24.1 257.5 23.8C258 23.7 258 22.8 257.5 22.7C256.3 22.4 255 22.5 253.8 22.5C252.6 22.5 251.3 22.5 250.1 22.5C249.2 22.6 249.2 24 250.1 24Z" fill="#472A1A"/>
<path d="M244.4 48.4C245.2 48.4 246 48.4 246.8 48.4C247.2 48.4 247.6 48.4 248 48.4C248.4 48.4 248.8 48.3 249.3 48.3C249.9 48.2 249.9 47.3 249.3 47.2C248.9 47.1 248.5 47.1 248 47.1C247.6 47.1 247.2 47.1 246.8 47.1C246 47.1 245.2 47.1 244.4 47.1C244 47.1 243.7 47.4 243.7 47.8C243.7 48 244 48.4 244.4 48.4Z" fill="#472A1A"/>
<path d="M245.4 50.7C246.1 50.7 246.7 50.7 247.4 50.7C247.8 50.7 248.1 50.4 248.1 50C248.1 49.6 247.8 49.3 247.4 49.3C246.7 49.3 246.1 49.3 245.4 49.3C245 49.3 244.7 49.6 244.7 50C244.7 50.3 245 50.7 245.4 50.7Z" fill="#472A1A"/>
<path d="M252.1 43C253.7 43 255.2 43 256.8 43C257.6 43 258.3 43 259.1 43C259.9 43 260.7 42.9 261.5 42.8C262.1 42.7 262.1 41.9 261.5 41.8C260.7 41.7 259.9 41.6 259.1 41.6C258.3 41.6 257.6 41.6 256.8 41.6C255.2 41.6 253.7 41.6 252.1 41.6C251.2 41.6 251.2 43 252.1 43Z" fill="#472A1A"/>
<path d="M238.8 57C239.3 57 239.8 57 240.3 57C240.5 57 240.8 57 241.1 57C241.2 57 241.3 57 241.5 57C241.7 57 241.8 56.9 242 56.9C242.6 56.7 242.6 55.9 242 55.8C241.9 55.8 241.7 55.7 241.6 55.7C241.5 55.7 241.3 55.7 241.1 55.7C240.9 55.7 240.6 55.7 240.3 55.7C239.8 55.7 239.3 55.7 238.8 55.7C238.4 55.7 238.1 56 238.1 56.4C238.1 56.7 238.4 57 238.8 57Z" fill="#472A1A"/>
<path d="M96.1 12.3C94.5 12.3 92.9001 12.3 91.3001 12.3C90.5001 12.3 89.7001 12.3 88.9001 12.3C88.1001 12.3 87.4 12.4 86.6 12.5C86.2 12.6 86.2 13.3 86.6 13.4C87.4 13.5 88.1001 13.6 88.9001 13.6C89.7001 13.6 90.5001 13.6 91.3001 13.6C92.9001 13.6 94.5 13.6 96.1 13.6C97 13.6 97 12.3 96.1 12.3Z" fill="#472A1A"/>
<path d="M11.4 13.7C12.1 13.7 12.9 13.7 13.6 13.7C14 13.7 14.3 13.7 14.7 13.7C15.1 13.7 15.5 13.6 15.9 13.6C16.5 13.5 16.5 12.6 15.9 12.5C15.5 12.4 15.1 12.4 14.7 12.4C14.3 12.4 14 12.4 13.6 12.4C12.9 12.4 12.1 12.4 11.4 12.4C11 12.4 10.7 12.7 10.7 13.1C10.7 13.4 11 13.7 11.4 13.7Z" fill="#472A1A"/>
<path d="M21.8001 17.3C24.5001 17.3 27.2001 17.3 30.0001 17.3C31.4001 17.3 32.7001 17.3 34.1001 17.3C35.4001 17.3 36.8001 17.4 38.0001 17.2C38.5001 17.1 38.5001 16.3 38.0001 16.2C36.7001 15.9 35.3001 16 34.0001 16C32.6001 16 31.3001 16 29.9001 16C27.2001 16 24.5001 16 21.7001 16C20.9001 16 20.9001 17.3 21.8001 17.3Z" fill="#472A1A"/>
<path d="M20.3 23.9C21.2 23.9 21.2 22.5 20.3 22.5C19.3 22.4 19.3 23.9 20.3 23.9Z" fill="#472A1A"/>
<path d="M47.3 44.3C48.2 44.3 48.2 42.9 47.3 42.9C46.4 42.9 46.4 44.3 47.3 44.3Z" fill="#472A1A"/>
<path d="M255.3 12.8C256.2 12.8 256.2 11.4 255.3 11.4C254.4 11.4 254.4 12.8 255.3 12.8Z" fill="#472A1A"/>
<path d="M252.1 -0.700006C251.7 -0.200006 251.9 0.699994 252.5 0.999994C253.1 1.29999 253.9 1.09999 254.2 0.499994C254.5 -0.100006 254.2 -0.900006 253.6 -1.10001C253.2 -1.30001 252.6 -1.10001 252.6 -0.700006" fill="white"/>
<path d="M251.6 -0.999997C251.2 -0.399997 251.2 0.400003 251.6 1C251.8 1.3 252.1 1.6 252.4 1.7C252.8 1.9 253.2 1.9 253.5 1.8C254.2 1.7 254.8 1.1 255 0.400003C255.1 -0.399997 254.8 -1.2 254.2 -1.6C253.5 -2.1 252.2 -1.9 252 -0.899997C251.9 -0.499997 252.1 -0.0999967 252.5 3.33786e-06C252.9 0.100003 253.2 -0.0999967 253.4 -0.499997C253.4 -0.499997 253.4 -0.499997 253.4 -0.599997C253.4 -0.499997 253.4 -0.499997 253.3 -0.399997C253.3 -0.399997 253.3 -0.499997 253.4 -0.499997L253.3 -0.399997C253.4 -0.399997 253.4 -0.499997 253.5 -0.499997C253.4 -0.499997 253.4 -0.499997 253.3 -0.399997C253.4 -0.399997 253.4 -0.399997 253.5 -0.499997C253.4 -0.499997 253.4 -0.499997 253.3 -0.499997C253.4 -0.499997 253.5 -0.499997 253.5 -0.499997C253.4 -0.499997 253.4 -0.499997 253.3 -0.499997C253.4 -0.499997 253.5 -0.499997 253.5 -0.399997C253.4 -0.399997 253.4 -0.399997 253.3 -0.499997C253.4 -0.499997 253.5 -0.399997 253.5 -0.399997L253.4 -0.499997C253.5 -0.399997 253.5 -0.399997 253.6 -0.299997L253.5 -0.399997C253.6 -0.299997 253.6 -0.199997 253.7 -0.0999967C253.7 -0.199997 253.7 -0.199997 253.6 -0.299997C253.6 -0.199997 253.7 -0.0999967 253.7 3.33786e-06C253.7 -0.0999967 253.7 -0.0999967 253.7 -0.199997C253.7 -0.0999967 253.7 3.36021e-06 253.7 0.100003C253.7 3.36021e-06 253.7 3.31551e-06 253.7 -0.0999967C253.7 3.31551e-06 253.7 0.100003 253.6 0.200003C253.6 0.100003 253.6 0.100003 253.7 3.33786e-06C253.7 0.100003 253.6 0.200003 253.6 0.200003L253.7 0.100003C253.6 0.200003 253.6 0.200003 253.5 0.300003L253.6 0.200003C253.5 0.300003 253.4 0.300003 253.3 0.400003C253.4 0.400003 253.4 0.400003 253.5 0.300003C253.4 0.300003 253.3 0.400003 253.2 0.400003C253.3 0.400003 253.3 0.400003 253.4 0.400003C253.3 0.400003 253.2 0.400003 253.1 0.400003C253.2 0.400003 253.2 0.400003 253.3 0.400003C253.2 0.400003 253.1 0.400003 253 0.300003C253.1 0.300003 253.1 0.300003 253.2 0.400003C253.1 0.400003 253 0.300003 253 0.300003L253.1 0.400003C253 0.300003 252.9 0.300003 252.9 0.200003L253 0.300003C252.9 0.200003 252.9 0.100003 252.8 3.33786e-06C252.8 0.100003 252.8 0.100003 252.9 0.200003C252.9 0.100003 252.8 3.31551e-06 252.8 -0.0999967C252.8 3.31551e-06 252.8 3.36021e-06 252.8 0.100003C252.8 3.36021e-06 252.8 -0.0999967 252.8 -0.299997C252.8 -0.199997 252.8 -0.199997 252.8 -0.0999967C252.8 -0.199997 252.8 -0.299997 252.9 -0.399997C252.9 -0.299997 252.9 -0.299997 252.8 -0.199997C252.8 -0.299997 252.9 -0.299997 252.9 -0.399997C253.1 -0.699997 253 -1.1 252.7 -1.3C252.1 -1.4 251.8 -1.3 251.6 -0.999997Z" fill="white"/>
<path d="M196.4 21.8C196.3 22.5 196.3 23.1 196.3 23.8C196.3 23.9 196.4 24 196.5 24C196.6 24 196.6 24 196.7 24C196.8 24 196.8 23.9 196.8 23.8C196.7 23.2 196.8 22.5 196.9 21.9C196.9 21.8 196.9 21.7 196.7 21.6C196.6 21.6 196.4 21.7 196.4 21.8Z" fill="#472A1A"/>
<path d="M206.2 19.6C206.2 19.7 206.2 19.7 206.3 19.8V19.9C206.3 19.9 206.3 19.9 206.4 20H206.5C206.6 20 206.6 19.9 206.6 19.8C206.6 19.7 206.6 19.7 206.6 19.6C206.6 19.5 206.6 19.5 206.5 19.4C206.5 19.3 206.5 19.3 206.4 19.3C206.4 19.3 206.3 19.3 206.2 19.3C206.1 19.3 206.1 19.3 206.1 19.4C206.2 19.5 206.1 19.5 206.2 19.6Z" fill="#472A1A"/>
<path d="M164.8 19.9C164.8 20.1 164.8 20.3 164.7 20.5C164.7 20.6 164.7 20.7 164.7 20.8V20.9C164.7 21 164.7 21 164.7 21.1C164.7 21.2 164.8 21.3 164.9 21.3C165 21.3 165.1 21.3 165.1 21.2C165.1 21.1 165.1 21.1 165.1 21V20.9C165.1 20.8 165.1 20.7 165.1 20.6C165.1 20.4 165.1 20.2 165.2 20C165.2 19.9 165.1 19.8 165 19.8C164.9 19.7 164.9 19.8 164.8 19.9Z" fill="#472A1A"/>
<path d="M165.8 19.9C165.8 20.1 165.8 20.4 165.8 20.6C165.8 20.7 165.8 20.8 165.8 20.9C165.8 21 165.8 21.2 165.8 21.3C165.8 21.5 166.1 21.5 166.2 21.3C166.2 21.2 166.2 21 166.2 20.9C166.2 20.8 166.2 20.7 166.2 20.6C166.2 20.4 166.2 20.1 166.2 19.9C166.2 19.8 166.1 19.7 166 19.7C165.9 19.7 165.8 19.8 165.8 19.9Z" fill="#472A1A"/>
<path d="M167.2 20.1C167.2 20.4 167.2 20.7 167.3 20.9C167.3 21.2 167.3 21.5 167.4 21.8C167.4 21.9 167.5 22 167.6 21.9C167.7 21.9 167.8 21.8 167.8 21.7C167.8 21.4 167.8 21.2 167.7 20.9C167.7 20.6 167.7 20.4 167.6 20.1C167.6 20 167.5 19.9 167.4 19.9C167.3 19.9 167.2 20 167.2 20.1Z" fill="#472A1A"/>
<path d="M170.8 21.6C170.8 21.9 170.8 22.2 170.9 22.6C170.9 22.8 170.9 22.9 170.9 23.1C170.9 23.3 170.9 23.4 171 23.6C171.1 23.7 171.3 23.7 171.3 23.6C171.4 23.4 171.3 23.3 171.3 23.1C171.3 22.9 171.3 22.8 171.3 22.6C171.3 22.3 171.3 22 171.2 21.6C171.2 21.5 171.1 21.4 171 21.4C170.9 21.4 170.8 21.5 170.8 21.6Z" fill="#472A1A"/>
<path d="M172.6 22.4C172.6 22.7 172.7 23.1 172.7 23.4C172.7 23.6 172.7 23.7 172.7 23.9C172.7 24.1 172.7 24.3 172.8 24.5C172.9 24.7 173.1 24.6 173.2 24.5C173.2 24.3 173.2 24.1 173.2 24C173.2 23.8 173.2 23.7 173.2 23.5C173.2 23.2 173.1 22.8 173.1 22.5C173.1 22.4 173 22.3 172.9 22.3C172.7 22.2 172.5 22.3 172.6 22.4Z" fill="#472A1A"/>
<path d="M173.9 22.7C174 23.2 174.1 23.6 174.1 24.1C174.1 24.3 174.1 24.6 174.1 24.8C174.1 24.9 174.1 25 174.1 25.2C174.1 25.3 174.1 25.4 174.1 25.6C174.2 25.7 174.3 25.7 174.4 25.6C174.6 25.4 174.5 25.1 174.5 24.9C174.5 24.6 174.5 24.4 174.5 24.1C174.5 23.6 174.4 23.1 174.3 22.6C174.3 22.3 173.9 22.4 173.9 22.7Z" fill="#472A1A"/>
<path d="M175.3 23.4C175.4 24 175.4 24.6 175.4 25.2C175.4 25.5 175.4 25.8 175.4 26.1C175.4 26.2 175.4 26.4 175.4 26.5C175.4 26.7 175.4 26.8 175.4 27C175.4 27.2 175.6 27.2 175.7 27C175.8 26.8 175.8 26.7 175.8 26.5C175.8 26.3 175.8 26.2 175.9 26C175.9 25.7 175.9 25.4 175.9 25.1C175.9 24.5 175.9 23.8 175.8 23.2C175.7 23.1 175.3 23.2 175.3 23.4Z" fill="#472A1A"/>
<path d="M163 19.4C163 19.6 163.1 19.8 163 20C163 20.1 163 20.2 162.9 20.3C162.9 20.4 162.9 20.4 162.9 20.5C162.9 20.6 162.9 20.6 162.9 20.7C162.9 20.8 163 20.8 163 20.8C163.1 20.8 163.1 20.8 163.2 20.8C163.3 20.7 163.3 20.6 163.4 20.4C163.4 20.3 163.5 20.1 163.5 20C163.5 19.7 163.5 19.5 163.5 19.2C163.5 19.1 163.3 19 163.2 19C163.1 19.1 163 19.2 163 19.4Z" fill="#472A1A"/>
<path d="M161.2 19.3C161.2 19.7 161.2 20.1 161.2 20.5C161.2 20.9 161.2 21.3 161.2 21.7C161.2 22 161.6 22 161.6 21.7C161.6 21.3 161.6 20.9 161.6 20.5C161.6 20.1 161.6 19.7 161.6 19.3C161.7 19 161.2 19 161.2 19.3Z" fill="#472A1A"/>
<path d="M159.8 18.1C159.8 18.8 159.7 19.5 159.7 20.1C159.7 20.4 159.7 20.8 159.7 21.1C159.7 21.4 159.6 21.8 159.7 22.1C159.8 22.3 160 22.3 160.1 22.1C160.2 21.9 160.1 21.7 160.2 21.6C160.2 21.4 160.2 21.3 160.2 21.1C160.2 20.8 160.2 20.4 160.2 20.1C160.2 19.4 160.3 18.7 160.3 18.1C160.3 17.9 159.9 17.9 159.8 18.1Z" fill="#472A1A"/>
<path d="M155.2 18.1C155.2 18.5 155.1 18.9 155 19.2C155 19.4 154.9 19.6 154.9 19.8C154.9 20 154.8 20.2 154.8 20.4C154.8 20.6 155.1 20.7 155.2 20.5C155.4 20.1 155.4 19.7 155.5 19.3C155.6 18.9 155.6 18.5 155.7 18.1C155.7 18 155.6 17.9 155.5 17.9C155.3 17.9 155.2 18 155.2 18.1Z" fill="#472A1A"/>
<path d="M150 17.6C150.1 17.6 150.1 17.6 150 17.6C150.1 17.7 150.1 17.6 150 17.6C150.1 17.7 150.1 17.7 150 17.6C150 17.7 150 17.7 150 17.7C150 17.7 150 17.7 150 17.8V17.9C150 17.9 150 17.9 150 18C150 18 150 18 150 18.1C150 18.1 149.9 18.1 149.9 18.2C149.9 18.2 149.9 18.3 149.8 18.3C149.7 18.4 149.8 18.5 149.9 18.6H150H150.1C150.2 18.6 150.2 18.5 150.2 18.5C150.3 18.4 150.3 18.3 150.4 18.2C150.5 18 150.5 17.7 150.3 17.5C150.2 17.4 150.1 17.4 150 17.4C150 17.4 150 17.5 150 17.6Z" fill="#472A1A"/>
<path d="M156.7 22.1C156.7 22.2 156.7 22.3 156.7 22.4C156.7 22.4 156.7 22.4 156.7 22.5C156.7 22.5 156.7 22.5 156.7 22.6L156.8 22.7C156.8 22.7 156.9 22.7 156.9 22.6V22.5C156.9 22.4 156.9 22.3 156.9 22.2V22.1V22C156.9 22 156.8 21.9 156.7 21.9C156.6 21.9 156.6 21.9 156.5 22C156.7 22 156.7 22.1 156.7 22.1Z" fill="#472A1A"/>
<path d="M177.9 22.5C177.9 22.9 177.9 23.3 177.9 23.7C177.9 23.9 177.9 24.1 177.9 24.3C177.9 24.5 177.9 24.7 177.9 24.9C177.9 25.1 178.2 25.1 178.2 24.9C178.3 24.7 178.2 24.5 178.2 24.3C178.2 24.1 178.2 23.9 178.2 23.7C178.2 23.3 178.2 22.9 178.2 22.5C178.3 22.2 177.9 22.2 177.9 22.5Z" fill="#472A1A"/>
<path d="M179.1 22.4C179.2 22.9 179.2 23.4 179.2 23.9C179.2 24.2 179.2 24.4 179.1 24.6C179.1 24.7 179.1 24.9 179 25C179 25.1 178.9 25.2 179 25.3C179 25.4 179.1 25.4 179.2 25.4C179.4 25.3 179.4 24.9 179.5 24.7C179.5 24.4 179.6 24.2 179.6 23.9C179.6 23.3 179.6 22.8 179.4 22.3C179.4 22 179 22.1 179.1 22.4Z" fill="#472A1A"/>
<path d="M180.7 23C180.8 23.4 181 23.8 181 24.2C181 24.4 181 24.6 181 24.8C181 24.9 181 25 181 25.1C181 25.2 181 25.3 181.1 25.4C181.2 25.5 181.3 25.5 181.4 25.4C181.5 25.3 181.5 25.2 181.5 25.1C181.5 25 181.5 24.9 181.5 24.8C181.5 24.6 181.5 24.4 181.5 24.2C181.4 23.8 181.3 23.4 181.2 23C181.2 22.9 181.1 22.8 180.9 22.8C180.8 22.8 180.7 22.9 180.7 23Z" fill="#472A1A"/>
<path d="M183.2 23.4C183.3 23.8 183.3 24.1 183.4 24.5C183.4 24.7 183.4 24.9 183.4 25.1C183.4 25.3 183.3 25.5 183.5 25.7C183.6 25.8 183.6 25.8 183.7 25.7C183.8 25.6 183.8 25.5 183.8 25.4C183.8 25.3 183.8 25.2 183.8 25.1C183.8 24.9 183.8 24.7 183.8 24.5C183.8 24.1 183.7 23.7 183.6 23.3C183.6 23 183.2 23.1 183.2 23.4Z" fill="#472A1A"/>
<path d="M185.2 23.4C185.2 23.7 185.3 24.1 185.3 24.4C185.3 24.7 185.4 25.1 185.5 25.4C185.5 25.6 185.9 25.6 185.9 25.3C185.9 25 185.8 24.6 185.8 24.3C185.8 24 185.7 23.6 185.7 23.3C185.7 23.2 185.5 23.1 185.4 23.1C185.2 23.1 185.2 23.2 185.2 23.4Z" fill="#472A1A"/>
<path d="M188.2 22.6C188.2 23 188.2 23.4 188.2 23.8C188.2 24 188.2 24.2 188.2 24.4C188.2 24.6 188.1 24.9 188.3 25C188.4 25.1 188.5 25.1 188.5 25C188.6 24.9 188.6 24.6 188.6 24.4C188.6 24.2 188.6 24 188.6 23.8C188.6 23.4 188.6 23 188.6 22.6C188.6 22.4 188.2 22.4 188.2 22.6Z" fill="#472A1A"/>
<path d="M190.7 22.6C190.7 23 190.6 23.4 190.7 23.8C190.7 24 190.7 24.2 190.8 24.4C190.8 24.6 190.8 24.8 191 25C191.1 25.1 191.3 25 191.3 24.9C191.3 24.8 191.3 24.7 191.3 24.6C191.3 24.5 191.3 24.4 191.2 24.3C191.2 24.1 191.2 24 191.1 23.8C191.1 23.4 191.1 23.1 191.1 22.7C191.1 22.6 191 22.5 190.9 22.5C190.8 22.4 190.7 22.5 190.7 22.6Z" fill="#472A1A"/>
<path d="M193.1 22.1C193.1 22.5 193.1 22.9 193.1 23.2C193.1 23.4 193.1 23.6 193.1 23.8C193.1 23.9 193.1 24 193.1 24.1C193.1 24.2 193.1 24.3 193.2 24.4C193.3 24.5 193.4 24.5 193.4 24.4C193.5 24.3 193.5 24.2 193.5 24.1C193.5 24 193.5 23.9 193.5 23.8C193.5 23.6 193.5 23.4 193.5 23.2C193.5 22.8 193.5 22.4 193.5 22.1C193.5 21.9 193.1 21.9 193.1 22.1Z" fill="#472A1A"/>
<path d="M207.9 18.1C207.9 18.3 208 18.5 208 18.8C208 19 208 19.3 208.1 19.5C208.1 19.7 208.5 19.7 208.5 19.4C208.5 19.2 208.5 19 208.4 18.7C208.4 18.5 208.3 18.3 208.3 18C208.3 17.9 208.2 17.8 208.1 17.8C208 17.9 207.9 18 207.9 18.1Z" fill="#472A1A"/>
<path d="M209.6 18.1C209.6 18.7 209.6 19.3 209.6 19.9C209.6 20 209.6 20 209.7 20.1C209.8 20.1 209.8 20.1 209.9 20.1C210 20.1 210 20 210 19.9C210 19.3 210 18.7 210 18.1C210 17.9 209.6 17.9 209.6 18.1Z" fill="#472A1A"/>
<path d="M210.8 17.3C210.8 17.8 210.9 18.2 210.9 18.7C210.9 19.2 210.9 19.7 211 20.1C211 20.3 211.4 20.3 211.4 20C211.4 19.8 211.4 19.5 211.4 19.3C211.4 19.1 211.4 18.8 211.4 18.6C211.4 18.1 211.3 17.7 211.3 17.2C211.2 17 210.8 17 210.8 17.3Z" fill="#472A1A"/>
<path d="M212.9 17.1C212.9 17.5 212.9 18 213 18.4C213 18.6 213.1 18.8 213.1 19C213.2 19.2 213.2 19.4 213.4 19.6C213.5 19.7 213.6 19.6 213.6 19.5C213.7 19.3 213.6 19.1 213.5 18.9C213.4 18.7 213.4 18.5 213.4 18.3C213.3 17.9 213.3 17.5 213.3 17.1C213.4 16.9 213 16.9 212.9 17.1Z" fill="#472A1A"/>
<path d="M215.1 16.8C215 17.2 215.1 17.6 215.2 18C215.3 18.2 215.3 18.4 215.5 18.6C215.6 18.7 215.6 18.8 215.7 18.9C215.8 19 215.8 19.1 216 19.1C216.1 19.1 216.2 19 216.2 18.9C216.2 18.8 216.1 18.7 216.1 18.6C216 18.5 216 18.5 216 18.4C215.9 18.2 215.8 18.1 215.8 17.9C215.7 17.6 215.7 17.2 215.7 16.8C215.7 16.7 215.6 16.6 215.5 16.6C215.2 16.6 215.2 16.7 215.1 16.8Z" fill="#472A1A"/>
<path d="M211.6 15.5C211.7 15.8 211.7 16.1 211.8 16.4C211.8 16.5 211.9 16.7 211.9 16.8C211.9 16.9 211.9 16.9 211.9 17C211.9 17.1 211.9 17.2 212 17.2C212.1 17.3 212.3 17.3 212.3 17.2V17.1C212.3 17 212.3 17 212.3 16.9C212.3 16.8 212.3 16.8 212.3 16.7C212.3 16.6 212.2 16.4 212.2 16.3C212.1 16 212.1 15.7 212 15.4C212 15.3 211.8 15.2 211.7 15.2C211.6 15.3 211.5 15.4 211.6 15.5Z" fill="#472A1A"/>
<path d="M177.1 27.4C177.2 27.5 177.3 27.6 177.4 27.8C177.4 27.9 177.5 27.9 177.5 28C177.5 28 177.5 28.1 177.6 28.1C177.6 28.1 177.7 28.2 177.8 28.2H177.9L178 28.1C178.1 28 177.9 27.8 177.8 27.8C177.8 27.7 177.7 27.7 177.7 27.6C177.6 27.5 177.5 27.4 177.4 27.2C177.4 27.2 177.3 27.1 177.2 27.1C177.1 27.1 177.1 27.1 177 27.2C177 27.2 176.9 27.3 176.9 27.4C177 27.3 177.1 27.4 177.1 27.4Z" fill="#472A1A"/>
<path d="M177.9 26.5C177.9 26.6 178 26.8 178 26.9C178 27 178.1 27 178.2 27H178.3L178.4 26.9C178.4 26.8 178.4 26.6 178.3 26.5V26.4C178.3 26.4 178.2 26.3 178.1 26.3C178 26.2 177.9 26.3 177.9 26.5Z" fill="#472A1A"/>
<path d="M197.5 26.8C197.5 26.9 197.5 26.9 197.5 26.9C197.5 26.9 197.5 26.9 197.5 27V27.1C197.5 27.1 197.5 27.1 197.5 27.2V27.3C197.5 27.3 197.5 27.4 197.4 27.4C197.4 27.5 197.4 27.5 197.3 27.6C197.3 27.7 197.3 27.7 197.4 27.8C197.5 27.8 197.5 27.8 197.6 27.8C197.7 27.8 197.7 27.7 197.8 27.7C197.8 27.7 197.8 27.6 197.9 27.6C197.9 27.5 198 27.4 198 27.3C198 27.1 198 26.9 198 26.7C198 26.6 197.8 26.5 197.7 26.6C197.5 26.6 197.5 26.7 197.5 26.8Z" fill="#472A1A"/>
<path d="M196.1 26C196.1 26.2 196 26.4 196 26.6C196 26.7 196.1 26.8 196.2 26.8C196.2 26.8 196.2 26.8 196.3 26.8C196.4 26.8 196.5 26.7 196.5 26.6C196.5 26.4 196.6 26.2 196.6 26V25.9C196.6 25.9 196.6 25.9 196.6 25.8C196.6 25.7 196.5 25.7 196.4 25.7C196.3 25.7 196.3 25.7 196.2 25.7C196.2 25.7 196.2 25.7 196.1 25.8C196.1 25.9 196.1 25.9 196.1 26Z" fill="#472A1A"/>
<path d="M115.8 18.1C116.3 18.2 116.8 18.2 117.3 18.3C117.5 18.3 117.8 18.4 118 18.4C118.2 18.4 118.5 18.5 118.7 18.4C118.8 18.4 118.9 18.2 118.7 18.1C118.5 18 118.2 18 118 18C117.7 18 117.5 17.9 117.2 17.9C116.7 17.8 116.2 17.8 115.7 17.7C115.6 17.7 115.5 17.8 115.5 17.9C115.6 18 115.7 18 115.8 18.1Z" fill="#472A1A"/>
<path d="M117.1 17.4C117.8 17.4 118.5 17.4 119.1 17.6C119.4 17.7 119.7 17.7 120.1 17.8C120.4 17.9 120.8 18 121.1 18.1C121.3 18.1 121.3 17.9 121.2 17.8C120.9 17.6 120.5 17.5 120.2 17.5C119.9 17.4 119.5 17.3 119.2 17.3C118.5 17.2 117.8 17.1 117.1 17.1C116.9 16.9 116.9 17.4 117.1 17.4Z" fill="#472A1A"/>
<path d="M118 16C119.1 16.2 120.2 16.4 121.4 16.6C122 16.7 122.5 16.8 123.1 16.9C123.6 17 124.2 17.2 124.7 17.1C124.8 17.1 124.8 16.9 124.7 16.8C124.3 16.5 123.6 16.5 123.2 16.4C122.6 16.3 122.1 16.2 121.5 16.1C120.4 15.9 119.3 15.7 118.2 15.5C117.8 15.5 117.7 15.9 118 16Z" fill="#472A1A"/>
<path d="M120.7 15.3C121.8 15.5 122.9 15.6 123.9 15.8C124.4 15.9 125 16 125.5 16C125.8 16 126 16.1 126.3 16.1C126.5 16.1 126.8 16.2 127 16.1C127.1 16.1 127.2 15.9 127.1 15.8C126.9 15.6 126.7 15.6 126.4 15.6C126.2 15.6 125.9 15.5 125.7 15.5C125.1 15.4 124.6 15.3 124 15.2C122.9 15 121.8 14.9 120.7 14.7C120.6 14.8 120.4 15.3 120.7 15.3Z" fill="#472A1A"/>
<path d="M122 13.6C123.1 13.8 124.2 14 125.2 14.2C125.7 14.3 126.2 14.4 126.7 14.6C127 14.7 127.2 14.8 127.5 14.8C127.7 14.9 128 15 128.3 15C128.4 15 128.5 14.8 128.4 14.7C128 14.4 127.4 14.3 127 14.2C126.5 14.1 125.9 13.9 125.4 13.8C124.3 13.5 123.2 13.3 122.1 13.2C121.8 13.1 121.7 13.6 122 13.6Z" fill="#472A1A"/>
<path d="M92.4999 50.7C93.3999 50.8 94.1999 50.9 95.0999 51C95.4999 51.1 95.9999 51.1 96.3999 51.2C96.5999 51.2 96.7999 51.2 96.9999 51.3C97.1999 51.3 97.3999 51.4 97.6999 51.3C97.7999 51.3 97.8999 51 97.6999 51C97.3999 50.8 96.8999 50.8 96.4999 50.8C95.9999 50.7 95.5999 50.7 95.0999 50.6C94.1999 50.5 93.2999 50.4 92.3999 50.3C92.1999 50.2 92.1999 50.6 92.4999 50.7Z" fill="#472A1A"/>
<path d="M92.5 49.3C93.3 49.5 94.2 49.6 95 49.7C95.4 49.7 95.8 49.8 96.3 49.8C96.7 49.8 97.2 49.9 97.5 49.7C97.7 49.6 97.6 49.4 97.5 49.4C97.3 49.3 97.1 49.4 96.9 49.4C96.7 49.4 96.5 49.4 96.3 49.4C95.9 49.4 95.5 49.4 95.1 49.4C94.3 49.3 93.5 49.2 92.6 49.1C92.3 48.9 92.2 49.3 92.5 49.3Z" fill="#472A1A"/>
<path d="M94.4999 47.9C95.2999 47.9 96.1999 47.9 96.9999 47.9C97.2999 47.9 97.2999 47.5 96.9999 47.5C96.1999 47.5 95.2999 47.5 94.4999 47.5C94.1999 47.4 94.1999 47.9 94.4999 47.9Z" fill="#472A1A"/>
<path d="M93.8 45.6C94.3 45.6 94.8 45.7 95.3 45.7C95.5 45.7 95.7999 45.7 95.9999 45.8C96.1999 45.8 96.5999 45.9 96.6999 45.7C96.6999 45.6 96.7999 45.6 96.6999 45.5C96.5999 45.3 96.1999 45.3 95.9999 45.3C95.7999 45.3 95.5 45.3 95.3 45.2C94.8 45.2 94.3 45.1 93.8 45.1C93.5 45.2 93.5 45.6 93.8 45.6Z" fill="#472A1A"/>
<path d="M94.8001 43.2C95.0001 43.2 95.1001 43.2 95.3001 43.2C95.4001 43.2 95.5001 43.2 95.6001 43.2C95.7001 43.2 95.7001 43.2 95.8001 43.2H95.9001C96.1001 43.2 96.1001 42.9 95.9001 42.9H95.8001C95.7001 42.9 95.7001 42.9 95.6001 42.9C95.5001 42.9 95.4001 42.9 95.3001 42.9C95.1001 42.9 95.0001 42.9 94.8001 42.9C94.7001 42.9 94.6001 43 94.6001 43.1C94.6001 43.1 94.7001 43.2 94.8001 43.2Z" fill="#472A1A"/>
<path d="M139.5 36.5C138.7 37.1 137.9 37.7 137.1 38.2C136.2 38.7 135.3 39 134.4 39.4C134.2 39.5 134.3 39.8 134.6 39.8C135.6 39.5 136.5 39.1 137.4 38.6C138.3 38.1 139.1 37.5 139.9 36.9C140 36.6 139.7 36.3 139.5 36.5Z" fill="#472A1A"/>
<path d="M139.4 38.4C138.8 38.8 138.3 39.2 137.7 39.6C137.4 39.8 137.1 40 136.8 40.2C136.7 40.3 136.5 40.4 136.4 40.5C136.3 40.6 136.1 40.7 136.1 40.8C136.1 40.9 136.2 41 136.3 41C136.5 41 136.6 40.9 136.7 40.8C136.8 40.7 137 40.6 137.1 40.5C137.4 40.3 137.7 40.1 137.9 39.9C138.5 39.5 139 39.1 139.6 38.8C139.9 38.7 139.6 38.3 139.4 38.4Z" fill="#472A1A"/>
<path d="M138.2 41.2C137.9 41.4 137.6 41.7 137.3 41.9C137.2 42 137 42.1 136.9 42.3C136.8 42.4 136.6 42.6 136.5 42.7C136.4 42.8 136.4 42.9 136.5 42.9C136.5 43 136.7 43 136.7 42.9C136.9 42.8 137 42.7 137.2 42.5C137.3 42.4 137.5 42.2 137.6 42.1C137.9 41.9 138.2 41.6 138.5 41.4C138.6 41.3 138.6 41.2 138.6 41.1C138.4 41.2 138.3 41.1 138.2 41.2Z" fill="#472A1A"/>
<path d="M137.8 43.4C137.5 43.5 137.3 43.7 137 43.8C136.9 43.9 136.7 43.9 136.6 44C136.5 44 136.5 44.1 136.4 44.1C136.3 44.1 136.2 44.2 136.2 44.3C136.1 44.4 136.2 44.6 136.4 44.6C136.6 44.6 136.7 44.5 136.9 44.4C137 44.3 137.2 44.3 137.3 44.2C137.6 44.1 137.8 43.9 138.1 43.8C138.2 43.7 138.2 43.6 138.2 43.5C138 43.3 137.9 43.3 137.8 43.4Z" fill="#472A1A"/>
<path d="M137.2 45.3C137.2 45.4 137.1 45.5 137.1 45.6C137.1 45.6 137.1 45.6 137.1 45.7C137.1 45.7 137.1 45.7 137.1 45.8C137.1 45.8 137.1 45.8 137.2 45.8C137.2 45.8 137.2 45.8 137.3 45.8C137.3 45.8 137.4 45.8 137.4 45.7C137.5 45.6 137.5 45.5 137.6 45.5C137.6 45.5 137.6 45.4 137.6 45.3C137.6 45.3 137.6 45.2 137.5 45.2C137.5 45.2 137.5 45.2 137.4 45.2C137.4 45.2 137.4 45.2 137.3 45.2H137.2C137.3 45.2 137.3 45.2 137.2 45.3Z" fill="#472A1A"/>
<path d="M168.8 41.5C171.2 42 173.6 42.5 176 43C177.2 43.3 178.3 43.5 179.5 43.8C180.6 44 181.8 44.4 182.9 44.5C183.1 44.5 183.1 44.2 182.9 44.2C181.8 43.8 180.6 43.7 179.4 43.4C178.2 43.1 177.1 42.9 175.9 42.6C173.6 42.1 171.2 41.6 168.9 41.1C168.6 41 168.5 41.4 168.8 41.5Z" fill="#472A1A"/>
<path d="M168.3 43.8C171 44.5 173.7 45.3 176.4 46C177.7 46.4 179.1 46.7 180.4 47.1C181.7 47.5 183.1 48 184.4 48.2C184.6 48.2 184.7 47.9 184.5 47.9C183.2 47.4 181.8 47.1 180.5 46.7C179.2 46.3 177.8 46 176.5 45.6C173.8 44.9 171.1 44.1 168.4 43.4C168.1 43.3 168 43.7 168.3 43.8Z" fill="#472A1A"/>
<path d="M171.1 47C175.2 48 179.3 49.2 183.4 50.3C183.7 50.4 183.8 50 183.5 49.9C179.4 48.7 175.3 47.6 171.2 46.5C170.9 46.5 170.8 46.9 171.1 47Z" fill="#472A1A"/>
<path d="M173.1 50.1C174.9 50.5 176.6 51 178.4 51.4C179.3 51.6 180.1 51.8 181 52C181.8 52.2 182.7 52.5 183.6 52.6C183.8 52.6 183.8 52.3 183.7 52.3C182.9 52 182.1 51.9 181.3 51.7C180.4 51.5 179.5 51.3 178.6 51C176.8 50.6 175.1 50.1 173.3 49.7C173 49.6 172.9 50 173.1 50.1Z" fill="#472A1A"/>
<path d="M173 52.3C174.5 52.5 175.9 52.8 177.4 53.1C178.1 53.3 178.8 53.5 179.5 53.7C180.2 53.9 180.9 54.2 181.6 54.3C181.8 54.3 181.8 54.1 181.7 54C181.1 53.7 180.3 53.5 179.7 53.3C179 53.1 178.3 52.9 177.6 52.7C176.2 52.4 174.7 52.1 173.2 51.9C172.8 51.9 172.7 52.3 173 52.3Z" fill="#472A1A"/>
<path d="M174.2 55.1C175 55.3 175.8 55.6 176.6 55.9C177 56 177.4 56.2 177.8 56.4C178.2 56.6 178.6 56.8 179 56.9C179.2 56.9 179.3 56.7 179.1 56.6C178.8 56.4 178.3 56.2 178 56.1C177.6 55.9 177.2 55.8 176.8 55.6C176 55.3 175.2 55 174.3 54.8C174.1 54.6 173.9 55 174.2 55.1Z" fill="#472A1A"/>
<path d="M171.3 56.7C171.8 57 172.3 57.2 172.9 57.5C173.2 57.6 173.4 57.8 173.7 57.9C173.8 58 174 58 174.1 58.1C174.2 58.2 174.4 58.3 174.5 58.3C174.6 58.3 174.7 58.2 174.7 58C174.6 57.9 174.5 57.8 174.4 57.8C174.3 57.7 174.1 57.7 174 57.6C173.7 57.5 173.5 57.3 173.2 57.2C172.7 56.9 172.2 56.7 171.6 56.4C171.3 56.2 171.1 56.6 171.3 56.7Z" fill="#472A1A"/>
<path d="M164.1 50.2C164.5 50.1 165 50 165.4 50C165.6 50 165.8 50 166.1 50C166.3 50 166.6 50.1 166.8 50C166.9 50 166.9 49.8 166.9 49.7C166.7 49.5 166.5 49.5 166.2 49.5C166 49.5 165.7 49.4 165.5 49.4C165 49.4 164.5 49.5 164.1 49.6C163.7 49.8 163.9 50.3 164.1 50.2Z" fill="#472A1A"/>
<path d="M162.6 43.3C162.7 43.3 162.8 43.4 162.9 43.4H163H163.1C163.1 43.4 163.1 43.4 163.2 43.4C163.3 43.4 163.3 43.4 163.4 43.3V43.2V43.1C163.4 43.1 163.4 43.1 163.3 43.1C163.3 43.1 163.3 43.1 163.2 43.1C163.2 43.1 163.2 43.1 163.1 43.1H163C162.9 43.1 162.8 43 162.7 43C162.6 43 162.6 43 162.5 43L162.4 43.1C162.4 43.2 162.5 43.3 162.6 43.3Z" fill="#472A1A"/>
<path d="M248.2 33C247.7 33.3 247.1 33.6 246.6 34C246.4 34.2 246.1 34.4 245.9 34.5C245.8 34.6 245.7 34.7 245.5 34.8C245.4 34.9 245.2 35 245.3 35.2C245.3 35.3 245.3 35.3 245.4 35.3C245.6 35.3 245.7 35.2 245.8 35.1C245.9 35 246 34.9 246.1 34.8C246.3 34.6 246.6 34.4 246.8 34.2C247.3 33.8 247.8 33.5 248.4 33.2C248.6 33.2 248.4 32.8 248.2 33Z" fill="#472A1A"/>
<path d="M247.5 35.7C247.1 35.9 246.8 36.1 246.4 36.4C246.2 36.5 246.1 36.7 246 36.9C245.9 37 245.9 37.1 245.8 37.2C245.7 37.3 245.6 37.4 245.7 37.6C245.7 37.7 245.8 37.7 245.9 37.7C246 37.7 246.1 37.6 246.2 37.5C246.3 37.4 246.3 37.4 246.4 37.3C246.5 37.1 246.7 37 246.8 36.9C247.1 36.6 247.4 36.4 247.8 36.2C247.9 36.1 247.9 36 247.9 35.9C247.7 35.7 247.6 35.7 247.5 35.7Z" fill="#472A1A"/>
<path d="M246.9 37.7C246.7 37.9 246.5 38.1 246.4 38.3C246.3 38.4 246.2 38.5 246.1 38.6C246.1 38.7 246 38.7 246 38.8L245.9 38.9V39C245.9 39.1 245.9 39.1 245.9 39.2C246 39.3 246 39.3 246.1 39.2C246.2 39.2 246.2 39.1 246.3 39.1C246.3 39 246.4 39 246.4 38.9C246.5 38.8 246.6 38.7 246.7 38.6C246.9 38.4 247.1 38.2 247.2 38C247.3 37.9 247.3 37.8 247.2 37.7C247.1 37.6 246.9 37.6 246.9 37.7Z" fill="#472A1A"/>
<path d="M239.3 37.3C238.1 37.1 236.9 37.1 235.8 37.3C235.2 37.4 234.6 37.6 234.1 37.8C233.8 37.9 233.6 38 233.3 38.1C233 38.2 232.7 38.3 232.5 38.6C232.4 38.7 232.5 38.9 232.7 38.9C233 38.8 233.2 38.7 233.5 38.5C233.8 38.4 234 38.3 234.3 38.2C234.8 38 235.3 37.9 235.9 37.8C237 37.6 238.2 37.6 239.3 37.8C239.5 37.8 239.6 37.4 239.3 37.3Z" fill="#472A1A"/>
<path d="M236.7 38.9C236 38.9 235.3 38.9 234.6 39C234.3 39 233.9 39.1 233.6 39.2C233.3 39.3 232.9 39.3 232.6 39.5C232.5 39.6 232.5 39.9 232.7 39.8C233 39.8 233.4 39.6 233.7 39.6C234 39.5 234.4 39.5 234.7 39.4C235.4 39.3 236.1 39.3 236.7 39.3C236.9 39.3 236.9 38.9 236.7 38.9Z" fill="#472A1A"/>
<path d="M235.6 40.9C235.2 40.9 234.7 40.9 234.3 41C234.1 41 233.9 41.1 233.7 41.1C233.5 41.2 233.3 41.2 233.1 41.4C233.1 41.5 233.1 41.6 233.2 41.6C233.4 41.7 233.6 41.6 233.8 41.5C234 41.4 234.2 41.4 234.4 41.4C234.8 41.3 235.2 41.3 235.6 41.3C235.9 41.3 235.9 40.9 235.6 40.9Z" fill="#472A1A"/>
<path d="M235.5 43.5C235.4 43.6 235.3 43.6 235.2 43.7C235.1 43.7 235.1 43.8 235.1 43.9C235.1 43.9 235.1 44 235.2 44H235.3C235.4 44 235.5 43.9 235.7 43.9C235.7 43.9 235.8 43.9 235.8 43.8V43.7V43.6C235.8 43.5 235.7 43.5 235.7 43.5H235.6C235.6 43.4 235.5 43.4 235.5 43.5Z" fill="#472A1A"/>
<path d="M245.6 20.4C244.8 20.7 243.9 21 243 21.1C242.5 21.2 242.1 21.2 241.6 21.2C241.4 21.2 241.1 21.2 240.9 21.2C240.7 21.2 240.5 21.2 240.3 21.2C240.2 21.2 240.1 21.4 240.3 21.5C240.7 21.7 241.2 21.6 241.6 21.6C242.1 21.6 242.5 21.6 243 21.5C243.9 21.4 244.9 21.1 245.7 20.8C246 20.7 245.9 20.3 245.6 20.4Z" fill="#472A1A"/>
<path d="M246 21.2C245.4 21.2 244.8 21.3 244.1 21.3C243.8 21.3 243.5 21.3 243.2 21.4C243 21.4 242.9 21.4 242.7 21.4C242.6 21.4 242.4 21.4 242.3 21.5C242.2 21.6 242.3 21.7 242.3 21.7C242.4 21.8 242.6 21.8 242.7 21.8C242.8 21.8 243 21.8 243.1 21.8C243.4 21.8 243.7 21.8 244 21.7C244.6 21.7 245.2 21.6 245.8 21.6C246.2 21.5 246.2 21.1 246 21.2Z" fill="#472A1A"/>
<path d="M244.7 22.7C244.6 22.7 244.4 22.7 244.3 22.7C244.2 22.7 244 22.7 243.9 22.7C243.8 22.7 243.7 22.8 243.7 22.9C243.7 23 243.8 23.1 243.9 23.1C244 23.1 244.2 23.1 244.3 23.1C244.4 23.1 244.6 23.1 244.7 23.1C244.8 23.1 244.9 23 244.9 22.9C244.9 22.8 244.9 22.7 244.7 22.7Z" fill="#472A1A"/>
<path d="M213.5 15.4C214.1 15.3 214.7 15.3 215.3 15.3C215.6 15.3 215.9 15.3 216.2 15.3C216.5 15.3 216.8 15.4 217.1 15.2C217.2 15.1 217.2 15 217.1 14.9C216.9 14.8 216.5 14.8 216.3 14.8C216 14.8 215.7 14.8 215.4 14.8C214.8 14.8 214.2 14.9 213.6 14.9C213.2 15 213.2 15.5 213.5 15.4Z" fill="#472A1A"/>
<path d="M214.7 13.5C215.4 13.4 216.1 13.4 216.7 13.3C217 13.3 217.4 13.2 217.7 13.2C218 13.2 218.4 13.2 218.6 13C218.7 12.9 218.6 12.8 218.6 12.8C218.4 12.6 218 12.8 217.7 12.8C217.4 12.8 217 12.9 216.7 12.9C216 13 215.4 13 214.7 13.1C214.4 13.1 214.4 13.5 214.7 13.5Z" fill="#472A1A"/>
<path d="M215.6 11C216.6 11 217.5 11 218.5 11.1C219 11.1 219.4 11.2 219.9 11.2C220.2 11.2 220.4 11.3 220.6 11.3C220.8 11.3 221 11.4 221.2 11.3C221.4 11.3 221.4 11 221.2 11C221 10.9 220.8 10.9 220.5 10.8C220.3 10.8 220 10.7 219.8 10.7C219.3 10.6 218.9 10.6 218.4 10.6C217.4 10.5 216.4 10.5 215.5 10.5C215.3 10.6 215.3 11 215.6 11Z" fill="#472A1A"/>
<path d="M218.1 9.1C218.9 9.3 219.7 9.4 220.5 9.6C220.9 9.7 221.3 9.8 221.7 9.8C222.1 9.9 222.5 10 222.9 10C223.1 10 223.1 9.7 222.9 9.7C222.5 9.6 222.1 9.5 221.7 9.4C221.3 9.3 220.9 9.2 220.5 9.2C219.7 9 218.9 8.9 218.1 8.7C218 8.6 217.9 9 218.1 9.1Z" fill="#472A1A"/>
<path d="M138.9 5.00001C141.9 5.10001 144.9 5.10001 147.9 4.60001C148.1 4.60001 148.1 4.20001 147.8 4.20001C144.8 4.50001 141.8 4.70001 138.8 4.60001C138.7 4.60001 138.7 5.00001 138.9 5.00001Z" fill="#472A1A"/>
<path d="M141.4 6.9C142.4 6.8 143.5 6.7 144.5 6.5C145 6.4 145.5 6.4 146 6.3C146.5 6.2 147 6.3 147.4 6.1C147.5 6 147.5 5.8 147.4 5.8C146.9 5.7 146.4 5.9 145.9 5.9C145.4 6 144.9 6 144.4 6.1C143.4 6.2 142.4 6.3 141.4 6.5C141.1 6.5 141.1 7 141.4 6.9Z" fill="#472A1A"/>
<path d="M145.3 8.5C146 8.5 146.7 8.4 147.4 8.4C147.7 8.4 148.1 8.4 148.4 8.3C148.7 8.3 149.1 8.3 149.4 8.2C149.6 8.1 149.6 7.9 149.4 7.9C149.1 7.8 148.7 7.9 148.4 7.9C148.1 7.9 147.7 7.9 147.4 8C146.7 8 146 8.10001 145.3 8.10001C145 8.10001 145 8.6 145.3 8.5Z" fill="#472A1A"/>
</g>
<defs>
<clipPath id="clip0_641_345">
<rect width="289.2" height="58.3" fill="white"/>
</clipPath>
</defs>
</svg>
